<svg width="151" height="30" fill="none" xmlns="http://www.w3.org/2000/svg"><path d="M49.156 9.123a5.142 5.142 0 0 1 4.068 2.01.207.207 0 0 0 .3.033l1.713-1.365a.214.214 0 0 0 .071-.226.212.212 0 0 0-.038-.074 7.8 7.8 0 0 0-6.183-3.04c-4.474 0-8.1 3.856-8.1 8.596s3.639 8.596 8.1 8.596a7.755 7.755 0 0 0 6.18-3.037.207.207 0 0 0-.036-.3l-1.71-1.35a.211.211 0 0 0-.236-.02.215.215 0 0 0-.064.053 5.178 5.178 0 0 1-4.065 2.002c-3.057 0-5.449-2.61-5.449-5.938 0-3.327 2.392-5.94 5.449-5.94ZM57.478 5.973h2.148a.213.213 0 0 1 .213.213V23.22a.21.21 0 0 1-.21.21H57.48a.213.213 0 0 1-.213-.213V6.186a.21.21 0 0 1 .21-.213ZM67.157 11.865c-2.847 0-5.727 2.016-5.727 5.871 0 3.388 2.463 5.944 5.727 5.944 3.264 0 5.751-2.556 5.751-5.944 0-3.387-2.472-5.87-5.751-5.87Zm3.159 5.871c0 1.956-1.359 3.433-3.16 3.433-1.8 0-3.131-1.477-3.131-3.433 0-1.956 1.347-3.36 3.132-3.36 1.785 0 3.159 1.443 3.159 3.36ZM84.486 12.111h-2.148a.212.212 0 0 0-.213.21v5.7c0 2.227-1.537 3.016-2.853 3.016-1.165 0-2.338-.88-2.338-2.844V12.32a.209.209 0 0 0-.213-.21h-2.148a.21.21 0 0 0-.21.21v6.15c0 3.376 1.527 5.233 4.302 5.233 1.008 0 2.64-.58 3.253-1.857l.207.042v1.332a.213.213 0 0 0 .213.213h2.148a.213.213 0 0 0 .213-.213v-10.9a.209.209 0 0 0-.213-.21ZM97.679 5.973h-2.151a.21.21 0 0 0-.21.213V13.8l-.132-.21c-.654-1.053-2.061-1.734-3.585-1.734-2.628 0-5.287 2.025-5.287 5.895 0 3.375 2.284 5.92 5.308 5.92 1.152 0 2.775-.463 3.564-1.759l.132-.216v1.524a.21.21 0 0 0 .21.213h2.15a.211.211 0 0 0 .196-.131.21.21 0 0 0 .015-.082V6.186a.21.21 0 0 0-.21-.213Zm-2.4 11.763a3.3 3.3 0 0 1-3.225 3.408c-1.758 0-3.135-1.5-3.135-3.408s1.377-3.36 3.135-3.36a3.3 3.3 0 0 1 3.216 3.36h.009ZM100.897 12.111h2.148a.21.21 0 0 1 .21.21v10.9a.21.21 0 0 1-.21.21h-2.148a.213.213 0 0 1-.213-.213V12.32c0-.056.023-.109.063-.148a.214.214 0 0 1 .15-.062ZM101.98 6.318a1.67 1.67 0 0 0-1.707 1.67 1.694 1.694 0 0 0 1.707 1.675 1.663 1.663 0 0 0 1.684-1.674 1.657 1.657 0 0 0-1.036-1.555 1.646 1.646 0 0 0-.648-.116ZM112.104 11.865c-.942 0-2.617.507-3.256 1.857l-.207-.042v-1.359a.205.205 0 0 0-.062-.15.207.207 0 0 0-.151-.06h-2.148a.21.21 0 0 0-.21.21v10.9c0 .027.005.055.015.081a.214.214 0 0 0 .195.132h2.148a.213.213 0 0 0 .213-.213v-5.7c0-2.209 1.537-3 2.854-3 1.164 0 2.337.872 2.337 2.82v5.88a.212.212 0 0 0 .213.213h2.154a.213.213 0 0 0 .213-.213v-6.148c-.006-3.357-1.536-5.208-4.308-5.208ZM129.244 12.111h-2.148a.213.213 0 0 0-.151.06.21.21 0 0 0-.062.15v1.5l-.129-.21c-.657-1.053-2.065-1.734-3.601-1.734-2.625 0-5.286 2.025-5.286 5.895 0 3.375 2.283 5.92 5.31 5.92 1.149 0 2.773-.463 3.565-1.759l.129-.216v1.503a.212.212 0 0 0 .213.213h2.148a.213.213 0 0 0 .149-.062.214.214 0 0 0 .046-.07.225.225 0 0 0 .015-.08v-10.9a.21.21 0 0 0-.198-.21Zm-2.4 5.625a3.313 3.313 0 0 1-.905 2.38 3.3 3.3 0 0 1-2.33 1.028c-1.758 0-3.132-1.5-3.132-3.408s1.374-3.36 3.132-3.36a3.3 3.3 0 0 1 3.229 3.36h.006ZM139.045 12.15a4.1 4.1 0 0 0-1.542-.3c-1.429 0-2.467.855-3.001 2.475l-.192-.027V12.32a.205.205 0 0 0-.062-.15.21.21 0 0 0-.151-.06h-2.148a.213.213 0 0 0-.15.06.195.195 0 0 0-.046.069.206.206 0 0 0-.017.08v10.9a.213.213 0 0 0 .213.213h2.172a.207.207 0 0 0 .15-.063.196.196 0 0 0 .045-.069.19.19 0 0 0 .015-.08V19.5c0-4.44 1.773-5.1 2.833-5.1.446 0 .888.093 1.299.27a.21.21 0 0 0 .183 0 .218.218 0 0 0 .07-.06.233.233 0 0 0 .038-.084l.426-2.133a.214.214 0 0 0-.135-.243ZM150.963 12.204a.206.206 0 0 0-.177-.093h-2.313a.216.216 0 0 0-.198.135l-2.799 7.255-2.826-7.255a.218.218 0 0 0-.198-.135h-2.359a.205.205 0 0 0-.098.025.204.204 0 0 0-.076.068.22.22 0 0 0-.035.097.208.208 0 0 0 .014.101l4.201 10.315-2.319 6.027a.21.21 0 0 0 .198.3h2.25a.209.209 0 0 0 .195-.135l6.558-16.5a.208.208 0 0 0-.018-.205ZM30.367 8.434A12.115 12.115 0 0 0 18.913 0a11.886 11.886 0 0 0-10.54 6.261 8.964 8.964 0 0 0-2.163 16.97l.225.101h.015v-2.55A6.687 6.687 0 0 1 9.237 8.434l.63-.066.276-.567a9.646 9.646 0 0 1 8.77-5.53 9.81 9.81 0 0 1 9.465 7.5l.216.859h.9a5.56 5.56 0 0 1 5.445 5.538c0 2.115-1.22 3.846-3.3 4.722v2.418l.15-.048c3.342-1.095 5.418-3.813 5.418-7.092a7.857 7.857 0 0 0-6.84-7.734Z" fill="#3448C5"/><path d="m14.514 23.037.498.498a.098.098 0 0 1 .02.106.099.099 0 0 1-.089.062h-3.93a1.8 1.8 0 0 1-1.8-1.8V14.27a.1.1 0 0 0-.1-.099h-.84a.1.1 0 0 1-.091-.06.099.099 0 0 1 .02-.108l3.336-3.336a.099.099 0 0 1 .141 0l3.333 3.336a.098.098 0 0 1 .02.107.099.099 0 0 1-.089.061h-.852a.102.102 0 0 0-.102.1v7.5c.001.474.19.93.525 1.266ZM21.886 23.037l.501.498a.1.1 0 0 1 .02.108.099.099 0 0 1-.092.06h-3.921a1.8 1.8 0 0 1-1.8-1.8V16.2a.102.102 0 0 0-.1-.102h-.848a.098.098 0 0 1-.09-.061.1.1 0 0 1 .02-.107l3.334-3.33a.099.099 0 0 1 .141 0l3.336 3.324a.1.1 0 0 1 .02.108.099.099 0 0 1-.092.06h-.852a.102.102 0 0 0-.099.102v5.577c0 .474.188.93.522 1.266ZM29.26 23.037l.497.498a.099.099 0 0 1-.069.168h-3.933a1.8 1.8 0 0 1-1.8-1.8v-3.79a.099.099 0 0 0-.099-.098h-.84a.098.098 0 0 1-.093-.062.1.1 0 0 1 .024-.11l3.336-3.332a.096.096 0 0 1 .138 0l3.336 3.333a.099.099 0 0 1-.013.154.098.098 0 0 1-.056.017h-.855a.1.1 0 0 0-.099.099v3.657c.001.475.19.93.525 1.266Z" fill="#3448C5"/></svg>