<svg width="151" height="41" fill="none" xmlns="http://www.w3.org/2000/svg"><path fill-rule="evenodd" clip-rule="evenodd" d="m55.348 12.945.126 2.245c1.432-1.736 3.313-2.604 5.641-2.604 4.034 0 6.087 2.316 6.159 6.947v12.832h-4.35v-12.58c0-1.233-.265-2.145-.796-2.738s-1.4-.889-2.606-.889c-1.755 0-3.063.797-3.92 2.388v13.819H51.25v-19.42h4.1-.002Zm24.89 19.78c-2.756 0-4.992-.87-6.704-2.611-1.714-1.741-2.57-4.06-2.57-6.956v-.538c0-1.937.372-3.67 1.119-5.196.745-1.525 1.794-2.712 3.142-3.563 1.35-.848 2.853-1.273 4.513-1.273 2.638 0 4.677.843 6.114 2.53 1.44 1.688 2.158 4.074 2.158 7.161v1.76H75.35c.133 1.603.666 2.87 1.603 3.804.937.933 2.117 1.4 3.537 1.4 1.993 0 3.616-.807 4.87-2.423l2.345 2.244c-.776 1.16-1.811 2.06-3.106 2.7-1.295.64-2.748.96-4.36.96Zm-.518-16.637c-1.195 0-2.157.419-2.892 1.256-.735.837-1.202 2.004-1.406 3.5h8.291v-.324c-.096-1.46-.484-2.563-1.164-3.31-.68-.748-1.623-1.122-2.83-1.122Zm17.117-7.862v4.72h3.421v3.23h-3.42v10.84c0 .742.146 1.277.438 1.607.292.329.815.493 1.568.493a6.688 6.688 0 0 0 1.521-.18v3.375c-.99.276-1.945.412-2.865.412-3.342 0-5.013-1.848-5.013-5.545V16.176h-3.19v-3.23h3.188v-4.72H96.837Zm11.371 24.14h-4.351V4.799h4.351v27.567Zm9.365 0h-4.352v-19.42h4.352v19.42Zm-4.62-24.463c0-.67.211-1.226.635-1.669.425-.442 1.03-.663 1.817-.663.789 0 1.397.221 1.828.663.429.443.643 1 .643 1.67 0 .657-.214 1.204-.643 1.641-.431.437-1.039.656-1.828.656-.787 0-1.392-.219-1.817-.656-.424-.436-.635-.984-.635-1.641v-.001Zm10.887 24.463v-16.19h-2.955v-3.23h2.955v-1.777c0-2.155.596-3.817 1.79-4.99 1.194-1.172 2.865-1.758 5.013-1.758.765 0 1.576.107 2.436.323l-.107 3.41a8.55 8.55 0 0 0-1.665-.143c-2.078 0-3.117 1.07-3.117 3.212v1.722h3.939v3.23h-3.939v16.19h-4.35v.001Zm18.245-6.245 3.939-13.175h4.638l-7.699 22.364c-1.182 3.266-3.187 4.9-6.016 4.9-.633 0-1.332-.109-2.096-.324V36.51l.824.054c1.098 0 1.925-.2 2.48-.601.555-.4.994-1.073 1.317-2.018l.625-1.67-6.804-19.33h4.692l4.1 13.175Z" fill="#0E1E25"/><path d="m29.331 14.127-.014-.007a.06.06 0 0 1-.023-.013.112.112 0 0 1-.029-.095l.79-4.825 3.7 3.702-3.849 1.638a.084.084 0 0 1-.033.006h-.016a.103.103 0 0 1-.02-.017 1.752 1.752 0 0 0-.506-.39Zm5.369-.294 3.957 3.957c.822.823 1.234 1.233 1.384 1.71.022.07.04.14.055.213l-9.458-4.006a.974.974 0 0 0-.015-.006c-.038-.015-.082-.033-.082-.071 0-.04.045-.058.083-.073l.012-.005 4.064-1.72Zm5.235 7.15c-.205.384-.603.782-1.277 1.457l-4.461 4.46-5.771-1.201-.03-.006c-.052-.009-.106-.018-.106-.064a1.742 1.742 0 0 0-.669-1.218c-.023-.023-.017-.06-.01-.094 0-.005 0-.01.002-.014l1.085-6.663.005-.023c.006-.05.015-.11.06-.11a1.765 1.765 0 0 0 1.185-.679c.01-.01.015-.021.028-.027.032-.016.071 0 .105.014l9.853 4.168Zm-6.765 6.944-7.337 7.337 1.256-7.72.002-.01a.135.135 0 0 1 .006-.029c.01-.024.037-.035.063-.045l.012-.005a1.89 1.89 0 0 0 .71-.528c.024-.029.054-.056.091-.061a.092.092 0 0 1 .03 0l5.166 1.062.002-.001Zm-8.89 8.89-.827.827L14.31 24.43a.47.47 0 0 0-.01-.015c-.014-.019-.03-.038-.026-.06 0-.017.01-.032.022-.044l.01-.013c.028-.04.051-.082.077-.126l.02-.035.003-.003c.015-.025.028-.048.052-.062.022-.01.051-.006.075 0l10.13 2.088a.168.168 0 0 1 .077.034c.013.013.016.028.02.044a1.795 1.795 0 0 0 1.049 1.2c.029.014.016.046.003.08a.241.241 0 0 0-.015.045l-1.517 9.254Zm-1.727 1.726c-.61.604-.969.923-1.375 1.052-.401.127-.831.127-1.232 0-.475-.151-.887-.562-1.709-1.385l-9.182-9.182 2.399-3.72a.152.152 0 0 1 .04-.047c.026-.019.063-.01.093 0 .55.166 1.142.136 1.673-.085.027-.01.055-.017.076.002.011.01.02.02.029.033l9.188 13.333ZM8.17 28.143l-2.106-2.106 4.16-1.775a.085.085 0 0 1 .033-.007c.035 0 .055.035.074.067.041.064.085.127.132.187l.014.017c.012.017.003.034-.009.05l-2.297 3.567H8.17Zm-3.039-3.038L2.467 22.44c-.454-.454-.782-.782-1.011-1.065l8.103 1.68.03.006c.05.008.105.017.105.064 0 .05-.06.074-.11.094l-.024.01-4.429 1.876Zm-4.14-5.1c.008-.172.04-.342.091-.506.151-.476.562-.886 1.385-1.709l3.41-3.41c1.57 2.279 3.144 4.554 4.723 6.827.028.037.058.078.027.109a2.84 2.84 0 0 0-.404.539.162.162 0 0 1-.05.063c-.014.008-.028.005-.044.002h-.002L.99 20.004Zm5.799-6.538 4.583-4.585c.432.189 2.001.851 3.403 1.443 1.062.45 2.03.858 2.334.99.03.013.058.025.071.056.009.018.005.042 0 .061a2.046 2.046 0 0 0 .534 1.867c.031.03 0 .074-.026.112l-.014.021-4.656 7.212a.141.141 0 0 1-.044.05c-.025.016-.06.009-.088.002a2.322 2.322 0 0 0-.554-.076c-.168 0-.35.03-.533.065h-.001c-.02.003-.04.007-.056-.005a.215.215 0 0 1-.045-.052l-4.91-7.16h.002ZM12.3 7.956l5.936-5.936c.822-.822 1.234-1.234 1.71-1.384.4-.127.83-.127 1.23 0 .477.15.888.562 1.71 1.384l1.286 1.286-4.221 6.539a.159.159 0 0 1-.042.049c-.026.017-.062.01-.092 0a2.141 2.141 0 0 0-1.96.377c-.028.029-.07.013-.104-.003-.551-.24-4.84-2.052-5.453-2.312ZM25.07 4.202l3.898 3.899-.94 5.817v.016a.14.14 0 0 1-.008.039c-.01.02-.03.024-.05.03a1.87 1.87 0 0 0-.58.296c-.012.013-.023.024-.041.026a.115.115 0 0 1-.044-.007l-5.94-2.524-.012-.005c-.038-.016-.082-.034-.082-.073a2.244 2.244 0 0 0-.317-.934c-.029-.047-.06-.096-.036-.144l4.152-6.436Zm-4.015 8.787 5.569 2.359c.03.014.064.027.077.059.006.02.006.04 0 .058a1.38 1.38 0 0 0-.03.269v.156c0 .039-.04.055-.077.07l-.011.004a7807.12 7807.12 0 0 1-12.402 5.282c-.018 0-.036 0-.053-.017-.031-.03 0-.074.027-.113l.014-.02 4.577-7.086.008-.012c.026-.043.057-.09.106-.09l.046.006c.104.015.196.028.289.028.694 0 1.337-.338 1.725-.916a.163.163 0 0 1 .035-.04c.028-.021.069-.011.1.003Zm-6.377 9.378 12.538-5.347s.018 0 .036.018c.068.068.126.114.182.157l.028.017c.026.015.051.03.053.057 0 .01 0 .017-.002.026l-1.074 6.598-.004.026c-.007.051-.014.11-.062.11a1.766 1.766 0 0 0-1.402.864l-.005.008c-.015.024-.028.046-.051.059-.022.01-.05.006-.072 0l-9.999-2.062c-.01-.002-.155-.53-.166-.53Z" fill="url(#a)"/><defs><radialGradient id="a" cx="0" cy="0" r="1" gradientUnits="userSpaceOnUse" gradientTransform="matrix(0 39.1057 -45.149 0 -.323 19.563)"><stop stop-color="#20C6B7"/><stop offset="1" stop-color="#4D9ABF"/></radialGradient></defs></svg>