<svg width="151" height="39" fill="none" xmlns="http://www.w3.org/2000/svg"><path fill-rule="evenodd" clip-rule="evenodd" d="m36.212 20.908 2.84 2.845c.225.226.353.533.353.851v1.601c0 4.29-.446 5.846-1.284 7.414a8.735 8.735 0 0 1-3.63 3.638c-1.565.838-3.117 1.285-7.398 1.285h-7.517a.24.24 0 0 1-.169-.411v.001l2.84-2.846c.224-.225.53-.352.848-.352h3.475c3.21 0 4.374-.335 5.548-.965a6.552 6.552 0 0 0 2.722-2.728c.618-1.157.952-2.304.963-5.402v-4.761a.24.24 0 0 1 .41-.17ZM1.4 18.5l2.841 2.846c.225.226.352.533.352.851v3.482c0 3.218.334 4.385.962 5.56a6.552 6.552 0 0 0 2.722 2.729c1.174.63 2.339.964 5.549.964h4.592a.24.24 0 0 1 .171.411l-2.841 2.846c-.225.225-.53.353-.848.353h-1.598c-4.28 0-5.832-.447-7.398-1.286a8.736 8.736 0 0 1-3.63-3.638c-.826-1.547-1.271-3.081-1.284-7.237v-7.71a.24.24 0 0 1 .41-.17Zm56.182-7.735c1.12 0 2.127.208 3.022.623a6.786 6.786 0 0 1 2.288 1.706 7.374 7.374 0 0 1 1.433 2.551c.327.979.49 2.032.49 3.158a9.405 9.405 0 0 1-.52 3.158 7.934 7.934 0 0 1-1.449 2.552 6.705 6.705 0 0 1-2.242 1.705 6.611 6.611 0 0 1-2.87.622c-.691 0-1.3-.074-1.83-.223a6.148 6.148 0 0 1-1.403-.574 5.617 5.617 0 0 1-1.037-.749 5.369 5.369 0 0 1-.703-.782c-.05 0-.091.041-.092.091v7.726a1.4 1.4 0 0 1-1.4 1.4h-.86a1.4 1.4 0 0 1-1.4-1.4v-19.78a1.4 1.4 0 0 1 1.4-1.4h.929c.634 0 1.148.513 1.148 1.148v1.086c0 .035.028.061.061.061.53-.935 1.24-1.614 2.137-2.041a6.671 6.671 0 0 1 2.898-.638Zm-27.37 4.126 2.84 2.85c.224.225.35.53.35.85v9.126a4.807 4.807 0 0 1-4.801 4.813h-3.04a.24.24 0 0 1-.174-.407l3.7-3.882a2.39 2.39 0 0 0 .56-.877c.102-.271.154-.56.153-.85V15.061a.24.24 0 0 1 .411-.17ZM7.398 24.494h-.001l3.873 3.709c.256.256.556.443.875.56.263.1.55.154.85.154h11.426a.24.24 0 0 1 .17.41l-2.843 2.848c-.224.224-.53.351-.848.351h-9.107a4.807 4.807 0 0 1-4.801-4.812v-3.046a.24.24 0 0 1 .406-.174Zm138.646-13.729a7.67 7.67 0 0 1 2.824.559c.36.142.786.396 1.275.76a1.4 1.4 0 0 1 .176 2.093l-.567.591a1.401 1.401 0 0 1-1.876.135 3.769 3.769 0 0 0-.396-.278 2.79 2.79 0 0 0-1.436-.415c-.67 0-1.271.128-1.799.383a4.252 4.252 0 0 0-1.358 1.02 4.349 4.349 0 0 0-.855 1.467 5.2 5.2 0 0 0-.29 1.722c0 .597.097 1.17.29 1.723.193.553.478 1.042.856 1.467.379.428.84.775 1.357 1.021.528.255 1.129.383 1.799.383a3.5 3.5 0 0 0 1.587-.367c.1-.05.207-.117.321-.202a1.401 1.401 0 0 1 1.878.198l.556.625a1.332 1.332 0 0 1-.328 2.042 8.542 8.542 0 0 1-2.853 1.037 7.286 7.286 0 0 1-1.161.112 8.445 8.445 0 0 1-3.111-.575 7.424 7.424 0 0 1-2.534-1.626 7.74 7.74 0 0 1-1.693-2.536c-.417-.989-.625-2.09-.625-3.301 0-1.212.208-2.312.625-3.301a7.74 7.74 0 0 1 1.693-2.536 7.424 7.424 0 0 1 2.534-1.626 8.45 8.45 0 0 1 3.111-.575Zm-51.6 0a8.36 8.36 0 0 1 2.899.527c.346.127.732.362 1.159.706a1.4 1.4 0 0 1 .08 2.112l-.456.428a1.4 1.4 0 0 1-1.79.108c-.743-.545-1.405-.819-1.983-.819-.489 0-.967.129-1.436.383-.467.256-.701.67-.701 1.244 0 .468.192.808.58 1.021.387.212.874.393 1.465.542.59.149 1.225.303 1.906.462a7.34 7.34 0 0 1 1.908.734c.59.33 1.078.78 1.465 1.356.386.574.58 1.36.58 2.36 0 .914-.188 1.684-.565 2.312a4.536 4.536 0 0 1-1.465 1.515 6.339 6.339 0 0 1-2.028.829c-.742.169-1.499.255-2.259.255-1.139 0-2.187-.17-3.144-.51-.374-.133-.823-.4-1.347-.803a1.4 1.4 0 0 1-.128-2.113l.38-.372a1.4 1.4 0 0 1 1.907-.051c.222.195.415.346.577.452.54.352 1.196.527 1.968.527.265 0 .54-.032.824-.096.286-.064.55-.17.794-.319.244-.15.442-.334.595-.558.152-.223.23-.483.23-.78 0-.533-.194-.927-.581-1.181-.386-.256-.875-.463-1.466-.623a30.715 30.715 0 0 0-1.906-.445 7.174 7.174 0 0 1-1.907-.67 4.059 4.059 0 0 1-1.465-1.293c-.386-.553-.58-1.318-.58-2.296 0-.85.168-1.589.503-2.216a4.56 4.56 0 0 1 1.328-1.547 5.62 5.62 0 0 1 1.893-.894 8.317 8.317 0 0 1 2.166-.286Zm38.298.383a1.4 1.4 0 0 1 1.401 1.401v12.508a1.4 1.4 0 0 1-1.401 1.4h-.858a1.4 1.4 0 0 1-1.401-1.4V12.549a1.4 1.4 0 0 1 1.401-1.4h.858Zm-12.055-.382c.977 0 1.8.17 2.472.51a4.376 4.376 0 0 1 1.633 1.403c.417.595.716 1.291.899 2.09.184.797.275 1.653.275 2.566v7.72a1.4 1.4 0 0 1-1.401 1.402h-.86a1.4 1.4 0 0 1-1.401-1.401v-7.274c0-.468-.04-.92-.122-1.355a3.311 3.311 0 0 0-.428-1.149 2.198 2.198 0 0 0-.823-.78c-.346-.193-.793-.288-1.343-.288-.569 0-1.052.111-1.449.335a2.861 2.861 0 0 0-.976.893c-.261.387-.448.82-.55 1.275a6.33 6.33 0 0 0-.168 1.452v6.892a1.4 1.4 0 0 1-1.401 1.4h-.86a1.401 1.401 0 0 1-1.401-1.4v-7.721c0-.957-.192-1.718-.579-2.281-.387-.563-1.027-.845-1.923-.845-.609 0-1.124.107-1.541.319-.417.214-.762.5-1.037.862a3.48 3.48 0 0 0-.596 1.243c-.123.48-.184.973-.182 1.468v6.955a1.4 1.4 0 0 1-1.402 1.4h-.859a1.4 1.4 0 0 1-1.401-1.4V12.549c0-.773.627-1.4 1.401-1.4h.677a1.4 1.4 0 0 1 1.4 1.4v.992a6 6 0 0 1 1.633-1.93c.722-.564 1.693-.845 2.914-.845 2.3 0 3.825.946 4.577 2.838.53-.978 1.191-1.695 1.984-2.153.794-.457 1.739-.685 2.838-.685Zm-43.942 0c.224 0 .443.021.656.064.381.075.656.41.656.799v2.1a.765.765 0 0 1-.9.753 4.894 4.894 0 0 0-.87-.08c-.855 0-1.54.164-2.059.494-.519.33-.915.706-1.19 1.133a3.85 3.85 0 0 0-.55 1.275c-.092.425-.137.744-.137.957v6.796a1.4 1.4 0 0 1-1.4 1.4h-.86a1.4 1.4 0 0 1-1.401-1.4V12.549a1.4 1.4 0 0 1 1.4-1.4h1.049c.669 0 1.212.542 1.212 1.211v1.152a.06.06 0 0 0 .061.06c.407-.893.986-1.584 1.739-2.073.753-.489 1.618-.733 2.594-.733Zm6.594.382c.773 0 1.401.628 1.401 1.401v12.508a1.4 1.4 0 0 1-1.4 1.4h-.86a1.4 1.4 0 0 1-1.402-1.4V12.549a1.4 1.4 0 0 1 1.401-1.4h.86ZM14.834 6.06a.24.24 0 0 1 .174.407l-3.701 3.881a2.389 2.389 0 0 0-.559.877c-.102.272-.155.56-.155.85v11.454a.24.24 0 0 1-.41.169l-2.84-2.85a1.204 1.204 0 0 1-.35-.85v-9.126a4.807 4.807 0 0 1 4.801-4.812h3.04ZM56.85 14.21c-.671 0-1.272.128-1.8.383a4.266 4.266 0 0 0-1.358 1.02 4.359 4.359 0 0 0-.855 1.467 5.18 5.18 0 0 0-.289 1.722c0 .597.097 1.17.29 1.723.193.553.477 1.042.855 1.467.38.428.841.775 1.358 1.021.528.255 1.128.383 1.8.383.671 0 1.27-.128 1.8-.383a4.265 4.265 0 0 0 1.357-1.021c.377-.425.661-.914.856-1.467a5.195 5.195 0 0 0 .289-1.722c0-.596-.097-1.17-.29-1.722a4.36 4.36 0 0 0-.855-1.468 4.265 4.265 0 0 0-1.358-1.02c-.528-.256-1.128-.383-1.8-.383ZM34.492 1.33a8.736 8.736 0 0 1 3.63 3.637c.825 1.547 1.27 3.082 1.282 7.237v7.711a.24.24 0 0 1-.41.17l-2.84-2.845a1.204 1.204 0 0 1-.351-.852v-3.482c0-3.217-.335-4.384-.963-5.56a6.552 6.552 0 0 0-2.722-2.728c-1.173-.63-2.338-.965-5.548-.965h-4.593a.24.24 0 0 1-.17-.41l2.84-2.846c.225-.226.53-.353.85-.353h1.596c4.28 0 5.833.447 7.399 1.285ZM20.819.043a.24.24 0 0 1 .169.41L18.148 3.3a1.2 1.2 0 0 1-.849.353h-3.474c-3.21 0-4.375.335-5.55.965a6.552 6.552 0 0 0-2.722 2.728c-.627 1.176-.962 2.343-.962 5.56v4.603a.24.24 0 0 1-.41.17l-2.838-2.845a1.204 1.204 0 0 1-.353-.852v-1.6c0-4.29.446-5.846 1.283-7.415a8.736 8.736 0 0 1 3.63-3.638C7.447.503 8.978.056 13.124.044h7.695ZM28.6 6.059a4.807 4.807 0 0 1 4.801 4.812v3.047a.24.24 0 0 1-.406.173l-3.871-3.708a2.397 2.397 0 0 0-.876-.56 2.391 2.391 0 0 0-.85-.155H15.973a.24.24 0 0 1-.17-.41l2.844-2.847a1.2 1.2 0 0 1 .848-.352H28.6Zm54.278-2.406c.672 0 1.236.218 1.694.653.458.437.687.984.687 1.643 0 .66-.23 1.207-.687 1.643-.458.436-1.022.654-1.694.654-.67 0-1.225-.229-1.663-.685a2.254 2.254 0 0 1-.655-1.612c0-.616.218-1.153.655-1.61.439-.457.993-.686 1.663-.686Zm49.405 0c.671 0 1.236.218 1.693.653.458.437.687.984.687 1.643 0 .66-.229 1.207-.687 1.643-.457.436-1.022.654-1.693.654-.672 0-1.226-.229-1.663-.685a2.252 2.252 0 0 1-.657-1.612c0-.616.219-1.153.657-1.61.437-.457.991-.686 1.663-.686Z" fill="#212735"/></svg>