<svg width="1400" height="350" viewBox="0 0 1400 350" fill="none" xmlns="http://www.w3.org/2000/svg">
<path d="M348 220.3C365.5 230.8 388 239.2 405.5 239.2C429.1 239.2 441.9 226.5 441.9 203.2C441.9 152.3 343.7 175.9 343.7 97C343.7 55.5 368.4 31.5 411 31.5C434.3 31.5 454.3 38 472.1 48.6L461.2 74.8C445.9 66.1 429.6 60.6 413.6 60.6C391.4 60.6 378.3 71.9 378.3 96.2C378.3 147.8 476.5 127.5 476.5 200.6C476.5 239.5 456.1 268.2 405.6 268.2C386 268.2 359.1 260.2 338.3 247.5L348 220.3Z" fill="#1A3560"/>
<path d="M516 117.8L488.7 116.3V93.7998H516.7L520 35.2998H547.3V93.7998H592L587.6 117.8H547.2V205C547.2 229.4 554.1 240.3 569.4 240.3C578.1 240.3 584.7 238.1 593 233.8L599.2 258.9C587.2 264.7 577.7 268.4 561.7 268.4C527.5 268.4 515.9 243.7 515.9 209.9V117.8H516Z" fill="#1A3560"/>
<path d="M684.4 90.0996C725.5 90.0996 745.9 123.9 745.9 181.4L744.1 185.4H649.9C651.4 220.7 664.4 240.3 693.5 240.3C707.3 240.3 723 235.2 734.6 227.9L742.6 253.4C727 262.9 710.6 268.3 690.2 268.3C640 268.3 616.7 231.6 616.7 179.6C616.7 123.2 642.9 90.0996 684.4 90.0996ZM714.9 162.9C713.4 133.4 704.4 117.1 685.1 117.1C665.5 117.1 652.7 133.1 650.2 162.9H714.9Z" fill="#1A3560"/>
<path d="M811.6 338.9H780.3V93.8002H806.8L809 120C817.7 101.8 833.4 90.2002 855.5 90.2002C888.6 90.2002 911.9 123.3 911.9 177.8C911.9 233.8 886.1 268.3 844.3 268.3C832.3 268.3 820.3 265 811.6 257.4V338.9ZM841.5 240.3C862.2 240.3 879 219.6 879 178.8C879 138.4 864.8 118.1 848.5 118.1C829.6 118.1 818 133.7 811.8 154.1V227.2C819.3 236 829.8 240.3 841.5 240.3Z" fill="#1A3560"/>
<path d="M937.1 254.9L1031.3 64.3998H942.9L942.2 35.2998H1074.6V46.5998L980.4 235.7H1077.1V264.8H937.1V254.9V254.9Z" fill="#1A3560"/>
<path d="M1169.8 90.0996C1210.9 90.0996 1231.3 123.9 1231.3 181.4L1229.5 185.4H1135.3C1136.8 220.7 1149.8 240.3 1178.9 240.3C1192.7 240.3 1208.4 235.2 1220 227.9L1228 253.4C1212.4 262.9 1196 268.3 1175.6 268.3C1125.4 268.3 1102.1 231.6 1102.1 179.6C1102.2 123.2 1128.4 90.0996 1169.8 90.0996ZM1200.4 162.9C1198.9 133.4 1189.9 117.1 1170.6 117.1C1151 117.1 1138.2 133.1 1135.7 162.9H1200.4Z" fill="#1A3560"/>
<path d="M1265.8 93.8002H1292.3L1294.5 120.7C1304 101.8 1321.8 90.2002 1341.8 90.2002C1375.6 90.2002 1391.3 114.9 1391.3 156.7V264.7H1360V161.8C1360 131.6 1350.9 118.2 1334.2 118.2C1316.4 118.2 1304 135.3 1297.1 154.2V264.7H1265.8V93.8002V93.8002Z" fill="#1A3560"/>
<path d="M118.6 115.599C118.6 111.999 119.3 108.499 120.7 105.199C122 101.999 124 99.0992 126.4 96.6992C128.9 94.1992 131.7 92.2992 134.9 90.9992C138.2 89.5992 141.7 88.8992 145.3 88.8992H156L180.7 64.1992H145.4C138.5 64.1992 131.7 65.5992 125.4 68.1992C119.3 70.7992 113.8 74.4992 109 79.1992C104.3 83.8992 100.6 89.3992 98 95.5992C95.3 101.999 94 108.699 94 115.599V150.899L118.7 126.199V115.599H118.6Z" fill="#00B1C9"/>
<path d="M286.1 11.0996V24.2996C286.1 26.1996 285.6 28.1996 284.5 29.6996C283 31.8996 281.7 33.1996 280.2 34.6996C276.8 38.0996 273.4 41.1996 270 44.5996C266.8 47.7996 263.6 50.9996 260.5 54.0996C257.5 57.0996 254.6 59.9996 251.6 62.9996C249.8 64.7996 248 66.5996 246.2 68.3996C159.5 155.1 140.3 174.3 140.2 174.4L51.0002 263.7H152.8C163.2 263.7 173.2 261.7 182.7 257.7C187.2 255.8 191.6 253.4 195.7 250.6C199.8 247.9 203.6 244.7 207.1 241.2C210.6 237.7 213.7 233.9 216.5 229.8C219.3 225.7 221.7 221.3 223.6 216.8C227.6 207.3 229.6 197.3 229.6 186.9V120.1L254.3 95.3996V187C254.3 193.9 253.6 200.7 252.2 207.4C250.9 213.9 248.9 220.3 246.3 226.5C243.8 232.5 240.6 238.3 236.9 243.7C233.3 249.1 229.1 254.1 224.5 258.7C219.9 263.3 214.9 267.5 209.5 271.1C204.1 274.8 198.3 277.9 192.3 280.5C186.2 283.1 179.8 285.1 173.2 286.4C166.5 287.8 159.6 288.5 152.8 288.5H40.4002H8.7002V275.3C8.7002 273.7 9.1002 272.1 9.8002 270.7C10.8002 268.8 12.4002 266.8 14.0002 265.3C24.0002 255.4 17.5002 261.9 19.2002 260.2C22.5002 256.9 19.2002 260.3 29.1002 250.6C32.2002 247.5 35.3002 244.4 38.4002 241.3C41.3002 238.4 44.2002 235.5 47.0002 232.7C49.7002 230 52.4002 227.3 55.0002 224.7C57.5002 222.2 60.0002 219.7 62.4002 217.3C64.7002 215 67.0002 212.7 69.3002 210.4C71.4002 208.3 73.5002 206.2 75.6002 204.1C77.5002 202.2 79.5002 200.2 81.4002 198.3C83.2002 196.5 84.9002 194.8 86.7002 193C88.3002 191.4 89.9002 189.8 91.5002 188.2C93.0002 186.7 94.4002 185.3 95.9002 183.8C97.2002 182.5 98.5002 181.2 99.8002 179.9C101 178.7 102.2 177.5 103.3 176.4C104.4 175.3 105.4 174.3 106.5 173.2C107.4 172.3 108.4 171.3 109.3 170.4C110.1 169.6 110.9 168.8 111.7 168C112.4 167.3 113.1 166.6 113.8 165.9C114.4 165.3 115 164.7 115.6 164.1C116.1 163.6 116.6 163.1 117.2 162.5C117.6 162.1 118.1 161.6 118.5 161.2C118.9 160.8 119.2 160.5 119.6 160.1C119.9 159.8 120.2 159.5 120.5 159.2C120.7 159 121 158.7 121.2 158.5C121.4 158.3 121.5 158.2 121.7 158C121.8 157.9 121.9 157.8 122.1 157.6C122.2 157.5 122.2 157.5 122.3 157.4L124.4 155.3L243.9 35.8996H142.1C131.7 35.8996 121.7 37.8996 112.2 41.8996C107.7 43.7996 103.3 46.1996 99.2002 48.9996C95.1002 51.6996 91.3002 54.8996 87.8002 58.3996C84.3002 61.8996 81.2002 65.6996 78.4002 69.7996C75.6002 73.8996 73.2002 78.2996 71.3002 82.7996C67.3002 92.2996 65.3002 102.3 65.3002 112.7V179.5L40.6002 204.2V112.7C40.6002 105.8 41.3002 98.8996 42.7002 92.2996C44.0002 85.7996 46.0002 79.3996 48.6002 73.1996C51.1002 67.1996 54.3002 61.3996 58.0002 55.9996C61.6002 50.5996 65.8002 45.5996 70.4002 40.9996C75.0002 36.3996 80.0002 32.1996 85.4002 28.5996C90.8002 24.8996 96.6002 21.7996 102.6 19.1996C108.7 16.5996 115.1 14.5996 121.7 13.2996C128.4 11.8996 135.3 11.1996 142.1 11.1996H254.5H286.1V11.0996Z" fill="#00B1C9"/>
<path d="M176.2 183.999C176.2 187.599 175.5 191.099 174.1 194.399C172.8 197.599 170.8 200.499 168.4 202.899C165.9 205.399 163.1 207.299 159.9 208.599C156.6 209.999 153.1 210.699 149.5 210.699H138.9L114.2 235.399H149.5C156.4 235.399 163.2 233.999 169.5 231.399C175.6 228.799 181.1 225.099 185.9 220.399C190.6 215.699 194.3 210.199 196.9 203.999C199.6 197.599 200.9 190.899 200.9 183.999V148.699L176.2 173.399V183.999V183.999Z" fill="#00B1C9"/>
</svg>
