<svg width="80" height="80" fill="none" xmlns="http://www.w3.org/2000/svg"><path d="M39.865 42.926c-.357 0-.74-.055-1.097-.137a4.244 4.244 0 0 1-2.58-1.976c-1.151-2.03-.466-4.608 1.537-5.76a4.11 4.11 0 0 1 3.21-.412 4.244 4.244 0 0 1 2.579 1.975c.576.988.713 2.113.411 3.21a4.244 4.244 0 0 1-1.975 2.579 4.6 4.6 0 0 1-2.085.52Zm-1.619-3.32c.247.44.631.741 1.125.85.466.138.96.056 1.4-.191.438-.247.74-.631.85-1.125.137-.466.054-.96-.192-1.399a1.687 1.687 0 0 0-1.125-.85c-.467-.138-.96-.055-1.4.192a1.892 1.892 0 0 0-.658 2.523ZM39.865 20.65c.356 0 .686-.22.823-.577l2.551-6.419a.909.909 0 0 0 0-.658l-2.551-6.42C40.55 6.246 40.22 6 39.865 6a.883.883 0 0 0-.823.576l-2.552 6.42a.909.909 0 0 0 0 .658l2.552 6.42a.883.883 0 0 0 .823.576ZM15.943 29.895l6.858 1.015h.138c.329 0 .603-.164.768-.439.192-.329.164-.713-.083-.987l-4.28-5.432a.833.833 0 0 0-.575-.33l-6.859-1.014a.886.886 0 0 0-.905.439c-.192.329-.165.713.082.987l4.28 5.432c.137.165.356.274.576.33ZM23.186 48.907l-6.859 1.015a.948.948 0 0 0-.576.329l-4.28 5.432a.922.922 0 0 0-.082.987.91.91 0 0 0 .768.44h.137l6.859-1.016a.947.947 0 0 0 .576-.329l4.28-5.432a.922.922 0 0 0 .082-.987c-.192-.302-.549-.494-.905-.44ZM41.484 59.03c-.138-.33-.467-.577-.823-.577a.883.883 0 0 0-.823.576l-2.552 6.42a.909.909 0 0 0 0 .658l2.552 6.42c.137.329.466.576.823.576.356 0 .685-.22.823-.576l2.551-6.42a.909.909 0 0 0 0-.658l-2.551-6.42ZM69.439 55.023l-4.28-5.432a.833.833 0 0 0-.576-.33l-6.858-1.014a.887.887 0 0 0-.906.439c-.192.329-.164.713.083.987l4.28 5.432a.833.833 0 0 0 .575.33l6.859 1.014h.137c.33 0 .604-.164.768-.439a.918.918 0 0 0-.082-.987ZM57.34 30.224l6.859-1.015a.948.948 0 0 0 .576-.33l4.28-5.431a.922.922 0 0 0 .082-.988.887.887 0 0 0-.906-.439l-6.858 1.015a.947.947 0 0 0-.576.33l-4.28 5.404a.922.922 0 0 0-.082.987.91.91 0 0 0 .768.44.247.247 0 0 0 .137.027ZM39.838 28.112c-.658 0-1.18-.522-1.18-1.18 0-1.4-1.124-2.524-2.523-2.524-.577 0-1.153.192-1.592.576a1.205 1.205 0 0 1-1.673-.164 1.205 1.205 0 0 1 .165-1.674 4.917 4.917 0 0 1 3.1-1.097c1.48 0 2.798.658 3.703 1.7a4.883 4.883 0 0 1 3.704-1.7c1.124 0 2.222.384 3.1 1.097.52.412.576 1.18.164 1.674-.411.52-1.18.576-1.673.164a2.47 2.47 0 0 0-1.591-.576 2.517 2.517 0 0 0-2.524 2.524c.027.658-.522 1.18-1.18 1.18Z" fill="#fff"/><path d="M39.838 32.445c-.659 0-1.18-.521-1.18-1.18v-4.334c0-.659.521-1.18 1.18-1.18.658 0 1.18.521 1.18 1.18v4.307c.027.658-.522 1.207-1.18 1.207ZM24.145 37.795c-.576 0-1.07-.411-1.18-.987a4.779 4.779 0 0 1 .604-3.237c.658-1.125 1.7-1.948 2.963-2.277.11-.028.22-.055.356-.083-.027-.11-.082-.22-.11-.356a4.939 4.939 0 0 1 .495-3.731 5.002 5.002 0 0 1 2.496-2.14c.604-.247 1.29.082 1.536.686a1.22 1.22 0 0 1-.686 1.536c-.548.22-.987.576-1.289 1.097a2.512 2.512 0 0 0 .933 3.43c.384.22.603.63.603 1.042 0 .192-.055.412-.164.604-.33.576-1.07.768-1.619.439a2.512 2.512 0 0 0-3.43.932c-.3.522-.41 1.098-.3 1.674.109.658-.33 1.262-.989 1.371h-.219Z" fill="#fff"/><path d="M33.391 36.148a1.25 1.25 0 0 1-.603-.165l-3.759-2.167c-.576-.33-.768-1.07-.439-1.619.33-.576 1.07-.768 1.619-.439l3.758 2.168c.576.329.768 1.07.44 1.618-.193.412-.604.604-1.016.604ZM30.21 52.445a1.1 1.1 0 0 1-.411-.083c-1.043-.411-1.948-1.152-2.497-2.14-.658-1.124-.823-2.44-.494-3.73.028-.11.055-.22.11-.357a4.832 4.832 0 0 1-3.32-2.36 4.97 4.97 0 0 1-.603-3.236 1.186 1.186 0 0 1 1.372-.988c.658.11 1.097.713.987 1.372-.082.576 0 1.152.302 1.673.686 1.207 2.25 1.619 3.43.933a1.175 1.175 0 0 1 1.618.439c.11.192.165.384.165.603 0 .412-.22.823-.604 1.043-.576.329-.988.878-1.18 1.536a2.609 2.609 0 0 0 .247 1.92c.302.522.741.878 1.29 1.098.603.22.932.932.686 1.536-.165.466-.631.74-1.098.74Z" fill="#fff"/><path d="M29.66 45.778c-.411 0-.823-.219-1.042-.603a1.175 1.175 0 0 1 .439-1.619l3.758-2.167a1.175 1.175 0 0 1 1.619.439c.329.576.137 1.29-.44 1.619l-3.758 2.167a1.08 1.08 0 0 1-.576.164ZM43.569 55.353a4.883 4.883 0 0 1-3.704-1.701 4.883 4.883 0 0 1-3.703 1.7 4.917 4.917 0 0 1-3.1-1.096c-.521-.412-.576-1.18-.165-1.674.412-.521 1.18-.576 1.674-.165a2.47 2.47 0 0 0 1.59.577c1.4 0 2.525-1.125 2.525-2.524 0-.659.521-1.18 1.18-1.18.658 0 1.18.521 1.18 1.18 0 1.399 1.124 2.524 2.523 2.524.576 0 1.152-.193 1.591-.577a1.205 1.205 0 0 1 1.674.165c.411.521.329 1.262-.165 1.673a4.917 4.917 0 0 1-3.1 1.098Z" fill="#fff"/><path d="M39.838 51.65c-.659 0-1.18-.521-1.18-1.18v-4.334c0-.659.521-1.18 1.18-1.18.658 0 1.18.521 1.18 1.18v4.334c.027.659-.522 1.18-1.18 1.18ZM49.496 52.445c-.494 0-.933-.302-1.125-.768a1.22 1.22 0 0 1 .686-1.536c.549-.22.988-.577 1.29-1.098.329-.576.438-1.262.246-1.92-.164-.659-.603-1.18-1.18-1.536a1.209 1.209 0 0 1-.603-1.043c0-.192.055-.411.165-.604.33-.576 1.07-.768 1.618-.438a2.512 2.512 0 0 0 3.43-.933 2.402 2.402 0 0 0 .301-1.674c-.11-.658.33-1.262.988-1.371.658-.11 1.262.329 1.372.987a4.779 4.779 0 0 1-.604 3.237 4.833 4.833 0 0 1-3.32 2.36c.028.11.083.22.11.356a4.939 4.939 0 0 1-.493 3.731 5.003 5.003 0 0 1-2.497 2.14c-.082.082-.247.11-.384.11Z" fill="#fff"/><path d="M50.044 45.778c-.193 0-.412-.054-.604-.164l-3.758-2.167c-.577-.33-.769-1.07-.44-1.619.33-.576 1.07-.768 1.62-.439l3.758 2.167c.576.33.768 1.07.439 1.619-.192.384-.604.603-1.015.603ZM55.557 37.796c-.055 0-.137 0-.192-.028a1.186 1.186 0 0 1-.987-1.371c.082-.577 0-1.153-.302-1.674-.33-.576-.878-.988-1.537-1.18a2.608 2.608 0 0 0-1.92.247c-.576.33-1.29.137-1.618-.439a1.175 1.175 0 0 1-.165-.603c0-.412.22-.823.604-1.043 1.207-.685 1.618-2.25.932-3.429a2.524 2.524 0 0 0-1.29-1.097c-.603-.22-.932-.933-.685-1.537.22-.603.905-.932 1.536-.685 1.043.411 1.948 1.152 2.497 2.14a4.94 4.94 0 0 1 .384 4.06c.11.027.247.055.356.082a4.774 4.774 0 0 1 2.963 2.277 4.97 4.97 0 0 1 .604 3.237c-.11.631-.604 1.043-1.18 1.043Z" fill="#fff"/><path d="M46.285 36.149c-.411 0-.823-.22-1.042-.604a1.175 1.175 0 0 1 .438-1.619l3.759-2.167a1.175 1.175 0 0 1 1.619.44c.329.575.137 1.288-.44 1.618l-3.758 2.167c-.164.137-.356.165-.576.165ZM29.963 22.872c-.412 0-.823-.22-1.043-.604l-5.98-10.37a1.175 1.175 0 0 1 .439-1.618 1.175 1.175 0 0 1 1.618.439l5.98 10.37c.33.576.138 1.289-.438 1.618-.165.11-.357.165-.576.165Z" fill="#fff"/><path d="M28.508 20.294c-.11 0-.22 0-.302-.028l-5.157-1.371a1.198 1.198 0 0 1-.85-1.454 1.198 1.198 0 0 1 1.453-.851l4.006 1.07 1.097-4.143a1.198 1.198 0 0 1 1.454-.85c.63.165 1.015.823.85 1.454l-1.426 5.267c-.11.549-.604.906-1.125.906ZM20.168 39.935H8.18c-.659 0-1.18-.52-1.18-1.18 0-.658.521-1.179 1.18-1.179h11.988c.659 0 1.18.521 1.18 1.18.027.658-.521 1.18-1.18 1.18Z" fill="#fff"/><path d="M13.447 43.667c-.302 0-.604-.11-.85-.357a1.176 1.176 0 0 1 0-1.674l2.934-2.935-3.017-3.018a1.176 1.176 0 0 1 0-1.673 1.176 1.176 0 0 1 1.673 0l3.868 3.868a1.176 1.176 0 0 1 0 1.673l-3.785 3.786c-.22.22-.522.33-.823.33ZM24.062 67.314a1.25 1.25 0 0 1-.603-.164c-.576-.33-.768-1.07-.44-1.62l5.982-10.369c.329-.576 1.07-.768 1.618-.439.576.33.768 1.07.439 1.619l-5.953 10.397c-.22.357-.631.576-1.043.576Z" fill="#fff"/><path d="M29.934 64.653a1.202 1.202 0 0 1-1.152-.878l-1.07-4.006-4.143 1.098c-.63.164-1.29-.22-1.454-.85-.164-.632.22-1.29.85-1.455l5.268-1.426c.63-.165 1.29.22 1.454.85l1.372 5.158c.164.63-.22 1.29-.85 1.454-.083.055-.165.055-.275.055ZM55.722 67.258c-.412 0-.823-.219-1.043-.603l-5.98-10.37a1.175 1.175 0 0 1 .439-1.619 1.175 1.175 0 0 1 1.618.44l5.98 10.37c.33.575.138 1.289-.438 1.618-.165.137-.384.164-.576.164Z" fill="#fff"/><path d="M49.769 64.761c-.11 0-.22 0-.302-.027a1.198 1.198 0 0 1-.85-1.454l1.426-5.295c.082-.302.274-.576.549-.713.274-.165.603-.192.905-.11l5.157 1.372c.631.164 1.015.823.85 1.454a1.198 1.198 0 0 1-1.453.85l-4.006-1.07-1.097 4.143c-.165.494-.658.85-1.18.85ZM71.495 39.826H59.507c-.659 0-1.18-.521-1.18-1.18 0-.658.521-1.18 1.18-1.18h11.988c.659 0 1.18.522 1.18 1.18.027.659-.521 1.18-1.18 1.18Z" fill="#fff"/><path d="M66.339 43.721c-.302 0-.604-.11-.85-.356l-3.869-3.868a1.204 1.204 0 0 1-.356-.85c0-.33.137-.632.356-.851l3.786-3.786a1.176 1.176 0 0 1 1.674 0 1.176 1.176 0 0 1 0 1.673l-2.936 2.936 3.018 3.017a1.176 1.176 0 0 1 0 1.674c-.192.302-.494.411-.823.411ZM49.632 22.817a1.25 1.25 0 0 1-.604-.165c-.576-.329-.768-1.07-.439-1.618l5.98-10.37c.33-.576 1.07-.768 1.62-.439.575.33.767 1.07.438 1.619l-5.98 10.37c-.192.384-.604.603-1.015.603Z" fill="#fff"/><path d="M51.142 20.267c-.22 0-.411-.055-.603-.165a1.189 1.189 0 0 1-.55-.713l-1.37-5.158c-.165-.63.219-1.289.85-1.454.63-.164 1.289.22 1.454.85l1.07 4.006 4.142-1.097c.631-.165 1.29.22 1.454.85.165.631-.22 1.29-.85 1.454l-5.295 1.427h-.302Z" fill="#fff"/></svg>