<svg width="80" height="80" fill="none" xmlns="http://www.w3.org/2000/svg"><path d="M39.804 46.452c-.52 0-1.07-.082-1.59-.22a6.035 6.035 0 0 1-3.704-2.853 5.949 5.949 0 0 1-.604-4.636 6.035 6.035 0 0 1 2.853-3.703 6.13 6.13 0 0 1 8.34 2.222 6.13 6.13 0 0 1-2.222 8.34c-.96.576-2.003.85-3.073.85Zm0-9.821c-.63 0-1.262.164-1.865.493a3.66 3.66 0 0 0-1.728 2.25c-.247.96-.138 1.948.384 2.826a3.66 3.66 0 0 0 2.25 1.728c.96.247 1.947.137 2.825-.384 1.783-1.015 2.387-3.292 1.371-5.075-.713-1.153-1.947-1.838-3.237-1.838ZM26.143 26.48a1.1 1.1 0 0 1-.412-.083c-.603-.22-.932-.932-.686-1.536.33-.85.906-1.536 1.701-2.003a3.965 3.965 0 0 1 2.88-.411c.275-.988.906-1.783 1.784-2.305a3.981 3.981 0 0 1 2.579-.466c.658.11 1.097.713.988 1.372a1.186 1.186 0 0 1-1.372.987c-.357-.055-.686 0-.988.192a1.516 1.516 0 0 0-.548 2.058c.11.192.164.384.164.603 0 .412-.22.823-.603 1.043-.576.33-1.29.137-1.619-.44a1.516 1.516 0 0 0-2.058-.548c-.384.22-.576.549-.658.768-.22.467-.658.769-1.152.769Z" fill="#fff"/><path d="M34.894 32.816c-.411 0-.823-.22-1.042-.603l-4.143-7.188a1.175 1.175 0 0 1 .44-1.618 1.175 1.175 0 0 1 1.618.439l4.142 7.187c.33.576.138 1.29-.439 1.619-.164.11-.356.164-.576.164ZM19.915 45.85c-.357 0-.686-.138-.933-.44a3.83 3.83 0 0 1-.877-2.469c0-1.042.411-2.003 1.097-2.688a3.843 3.843 0 0 1-1.098-2.689c0-.905.302-1.783.878-2.469.412-.521 1.18-.576 1.674-.164.521.411.576 1.18.164 1.673A1.522 1.522 0 0 0 22 39.073c.659 0 1.18.521 1.18 1.18a1.17 1.17 0 0 1-1.18 1.18 1.522 1.522 0 0 0-1.18 2.468c.412.522.33 1.262-.164 1.674-.192.192-.467.274-.74.274Z" fill="#fff"/><path d="M29.79 41.432h-8.284a1.17 1.17 0 0 1-1.18-1.18c0-.658.521-1.179 1.18-1.179h8.285c.658 0 1.18.521 1.18 1.18a1.17 1.17 0 0 1-1.18 1.18ZM33.139 60.937a3.773 3.773 0 0 1-1.948-.522 3.807 3.807 0 0 1-1.783-2.304c-.933.247-1.975.11-2.88-.412a3.941 3.941 0 0 1-1.702-2.002 1.22 1.22 0 0 1 .686-1.537 1.22 1.22 0 0 1 1.537.686c.137.33.356.604.658.768a1.516 1.516 0 0 0 2.057-.548c.33-.576 1.07-.769 1.619-.44.384.22.604.632.604 1.043 0 .192-.055.412-.165.604a1.516 1.516 0 0 0 .549 2.057c.301.165.658.247.987.192a1.2 1.2 0 0 1 1.372.988c.11.658-.33 1.262-.988 1.372-.164.055-.384.055-.603.055Z" fill="#fff"/><path d="M30.56 57.343a1.25 1.25 0 0 1-.603-.165c-.576-.33-.768-1.07-.439-1.618l4.142-7.188c.33-.576 1.07-.768 1.619-.439.576.33.768 1.07.439 1.619l-4.143 7.187c-.219.412-.603.604-1.014.604ZM46.25 61.075c-.219 0-.41-.028-.63-.055a1.186 1.186 0 0 1-.988-1.372 1.186 1.186 0 0 1 1.372-.988c.247.028.603.028.987-.192.357-.192.604-.52.714-.905.11-.384.055-.796-.138-1.152a1.175 1.175 0 0 1-.164-.604c0-.411.22-.823.603-1.042a1.175 1.175 0 0 1 1.619.439c.411.713 1.344.96 2.057.548.385-.22.577-.548.659-.768.22-.603.933-.933 1.536-.686.604.22.933.933.686 1.537a3.922 3.922 0 0 1-1.7 2.002 3.966 3.966 0 0 1-2.881.412c-.275.987-.906 1.783-1.784 2.304a3.977 3.977 0 0 1-1.947.522Z" fill="#fff"/><path d="M48.857 57.48c-.411 0-.823-.219-1.042-.603l-4.143-7.188a1.175 1.175 0 0 1 .44-1.618 1.175 1.175 0 0 1 1.618.439l4.142 7.187c.33.576.137 1.29-.439 1.619-.164.11-.356.164-.576.164ZM59.694 46.068c-.274 0-.52-.082-.74-.274-.522-.412-.577-1.18-.165-1.674a1.522 1.522 0 0 0-1.18-2.469 1.17 1.17 0 0 1-1.18-1.18c0-.658.522-1.18 1.18-1.18a1.522 1.522 0 0 0 1.18-2.468 1.205 1.205 0 0 1 .165-1.674 1.205 1.205 0 0 1 1.673.165 3.83 3.83 0 0 1 .878 2.469 3.795 3.795 0 0 1-1.097 2.688 3.844 3.844 0 0 1 1.097 2.689 3.83 3.83 0 0 1-.878 2.469 1.206 1.206 0 0 1-.933.439Z" fill="#fff"/><path d="M58.13 41.679h-8.284a1.17 1.17 0 0 1-1.18-1.18c0-.658.521-1.18 1.18-1.18h8.285c.658 0 1.18.522 1.18 1.18 0 .631-.522 1.18-1.18 1.18ZM53.658 26.59c-.494 0-.933-.3-1.125-.767-.137-.33-.356-.604-.658-.768a1.516 1.516 0 0 0-2.058.548c-.329.576-1.07.768-1.618.44A1.209 1.209 0 0 1 47.595 25c0-.192.055-.412.165-.604a1.516 1.516 0 0 0-.549-2.057c-.302-.165-.658-.247-.988-.192a1.186 1.186 0 0 1-1.371-.988c-.11-.658.329-1.262.987-1.372a4.046 4.046 0 0 1 2.58.467 3.807 3.807 0 0 1 1.782 2.304c.933-.247 1.975-.11 2.88.412a3.942 3.942 0 0 1 1.702 2.002 1.22 1.22 0 0 1-.686 1.537 1.244 1.244 0 0 1-.439.082Z" fill="#fff"/><path d="M44.907 32.929a1.25 1.25 0 0 1-.603-.165c-.577-.33-.769-1.07-.44-1.619l4.143-7.187c.33-.576 1.07-.768 1.619-.439.576.33.768 1.07.439 1.619l-4.143 7.187c-.192.384-.603.604-1.015.604ZM39.806 36.658a1.17 1.17 0 0 1-1.18-1.18V6.18c0-.659.521-1.18 1.18-1.18.658 0 1.18.521 1.18 1.18V35.45c0 .659-.522 1.207-1.18 1.207Z" fill="#fff"/><path d="M39.915 23.134c-.301 0-.603-.11-.85-.357l-6.31-6.31a1.176 1.176 0 0 1 0-1.673 1.176 1.176 0 0 1 1.673 0l5.487 5.487 5.35-5.35a1.176 1.176 0 0 1 1.673 0 1.176 1.176 0 0 1 0 1.674l-6.2 6.172c-.22.247-.521.357-.823.357Z" fill="#fff"/><path d="M39.888 14.877c-.302 0-.603-.11-.85-.357l-3.43-3.43a1.176 1.176 0 0 1 0-1.673 1.176 1.176 0 0 1 1.674 0l2.579 2.579 2.524-2.524a1.176 1.176 0 0 1 1.673 0 1.176 1.176 0 0 1 0 1.674l-3.347 3.346c-.22.275-.521.384-.823.384ZM35.552 39.099a1.25 1.25 0 0 1-.604-.165L9.6 24.312c-.576-.33-.768-1.07-.438-1.619.329-.576 1.07-.768 1.618-.439l25.349 14.622c.576.33.768 1.07.439 1.619-.192.384-.604.604-1.015.604Z" fill="#fff"/><path d="M15.28 34.573a1.202 1.202 0 0 1-1.153-.878c-.165-.63.22-1.29.85-1.454l7.49-2.002-1.948-7.298c-.165-.63.22-1.29.85-1.454.631-.164 1.29.22 1.454.85l2.277 8.45c.165.631-.219 1.29-.85 1.454l-8.642 2.305c-.11 0-.22.027-.329.027Z" fill="#fff"/><path d="M12.068 29.388a1.202 1.202 0 0 1-1.152-.878c-.165-.63.22-1.29.85-1.454l3.54-.96-.933-3.43c-.165-.63.22-1.288.85-1.453.631-.165 1.29.22 1.454.85l1.235 4.582c.082.302.027.63-.11.905a1.189 1.189 0 0 1-.713.549l-4.691 1.262c-.138.027-.247.027-.33.027ZM10.203 58.633c-.411 0-.823-.22-1.042-.604a1.175 1.175 0 0 1 .438-1.618l25.35-14.623a1.175 1.175 0 0 1 1.618.44c.329.575.137 1.289-.44 1.618L10.78 58.468c-.165.11-.357.165-.576.165Z" fill="#fff"/><path d="M21.505 59.29c-.11 0-.22 0-.301-.054a1.198 1.198 0 0 1-.85-1.454l2.002-7.49-7.298-1.948a1.198 1.198 0 0 1-.85-1.453 1.199 1.199 0 0 1 1.454-.85l8.45 2.276c.301.082.576.274.713.549.165.274.192.603.11.905l-2.305 8.642a1.17 1.17 0 0 1-1.125.878Z" fill="#fff"/><path d="M15.414 59.51c-.11 0-.22 0-.302-.054a1.199 1.199 0 0 1-.85-1.454l.96-3.54-3.43-.932a1.198 1.198 0 0 1-.85-1.454 1.198 1.198 0 0 1 1.454-.85l4.582 1.234c.302.082.576.274.713.549.165.274.192.603.11.905l-1.262 4.691c-.11.549-.604.906-1.125.906ZM39.804 75.724a1.17 1.17 0 0 1-1.18-1.18V45.272c0-.658.521-1.18 1.18-1.18.658 0 1.18.522 1.18 1.18v29.272a1.17 1.17 0 0 1-1.18 1.18Z" fill="#fff"/><path d="M46.003 66.286c-.302 0-.604-.11-.85-.356l-5.487-5.487-5.35 5.35a1.176 1.176 0 0 1-1.673 0 1.176 1.176 0 0 1 0-1.674l6.2-6.172a1.176 1.176 0 0 1 1.673 0l6.31 6.31a1.176 1.176 0 0 1 0 1.673 1.14 1.14 0 0 1-.823.356Z" fill="#fff"/><path d="M43.15 71.663c-.302 0-.603-.11-.85-.356l-2.579-2.579-2.524 2.524a1.176 1.176 0 0 1-1.673 0 1.176 1.176 0 0 1 0-1.673l3.346-3.347a1.176 1.176 0 0 1 1.674 0l3.43 3.429a1.176 1.176 0 0 1 0 1.673c-.22.192-.522.33-.824.33ZM69.405 58.633a1.25 1.25 0 0 1-.603-.165L43.453 43.846c-.576-.33-.768-1.07-.439-1.619.33-.576 1.07-.768 1.619-.438L69.98 56.41c.576.329.769 1.07.44 1.618-.22.384-.604.604-1.016.604Z" fill="#fff"/><path d="M57.965 59.29a1.202 1.202 0 0 1-1.152-.877l-2.277-8.45c-.164-.63.22-1.289.85-1.453l8.642-2.305c.631-.164 1.29.22 1.454.85.165.632-.22 1.29-.85 1.455l-7.49 2.002 1.948 7.297c.165.632-.22 1.29-.85 1.455-.083.027-.192.027-.275.027Z" fill="#fff"/><path d="M64.083 59.538a1.202 1.202 0 0 1-1.153-.878l-1.234-4.582a1.295 1.295 0 0 1 .11-.905c.164-.274.411-.466.713-.549l4.691-1.262c.631-.164 1.29.22 1.454.85.165.632-.22 1.29-.85 1.455l-3.54.96.933 3.43c.165.63-.22 1.288-.85 1.453-.055.028-.165.028-.274.028ZM44.056 39.1c-.411 0-.822-.22-1.042-.604a1.175 1.175 0 0 1 .439-1.619l25.349-14.622a1.175 1.175 0 0 1 1.618.44c.33.575.137 1.289-.439 1.618L44.633 38.935c-.165.11-.384.164-.577.164Z" fill="#fff"/><path d="M64.247 34.71c-.11 0-.22 0-.302-.055l-8.45-2.277c-.3-.083-.575-.275-.712-.549a1.162 1.162 0 0 1-.11-.905l2.304-8.642a1.199 1.199 0 0 1 1.454-.85c.631.164 1.015.823.85 1.454l-2.002 7.489 7.297 1.948c.631.164 1.016.823.85 1.454-.164.576-.658.933-1.179.933Z" fill="#fff"/><path d="M67.54 29.525c-.11 0-.22 0-.303-.055l-4.581-1.234c-.302-.082-.576-.274-.713-.549a1.163 1.163 0 0 1-.11-.905l1.262-4.691a1.198 1.198 0 0 1 1.454-.85c.63.164 1.015.822.85 1.453l-.96 3.54 3.43.932c.63.165 1.014.823.85 1.454a1.251 1.251 0 0 1-1.18.905ZM27.212 16.22c1.07 0 1.948.879 1.948 1.949s-.878 1.947-1.948 1.947a1.955 1.955 0 0 1-1.947-1.947c0-1.07.85-1.948 1.947-1.948ZM12.591 39.209c.549-.933 1.728-1.262 2.661-.713.933.548 1.262 1.728.713 2.66-.548.934-1.728 1.263-2.66.714a1.964 1.964 0 0 1-.714-2.661ZM25.182 63.351a1.934 1.934 0 0 1 .713-2.66 1.934 1.934 0 0 1 2.662.712c.52.933.22 2.14-.714 2.661-.905.55-2.112.22-2.66-.713ZM52.396 64.504a1.948 1.948 0 1 0 0-3.896 1.948 1.948 0 0 0 0 3.896ZM67.02 41.514c-.55.933-1.729 1.262-2.662.713-.932-.548-1.262-1.728-.713-2.66.549-.933 1.729-1.263 2.661-.714.933.549 1.262 1.728.713 2.661ZM54.427 17.372c.548.933.22 2.14-.714 2.661-.932.549-2.14.22-2.66-.713a1.934 1.934 0 0 1 .713-2.661c.905-.549 2.112-.22 2.66.713Z" fill="#fff"/></svg>