<svg width="80" height="80" fill="none" xmlns="http://www.w3.org/2000/svg"><path d="M39.892 46.259a6.467 6.467 0 0 1-5.624-3.237c-1.783-3.1-.713-7.05 2.36-8.861 3.1-1.784 7.05-.714 8.86 2.359 1.784 3.1.714 7.05-2.359 8.861-1.042.576-2.14.878-3.237.878Zm-.027-10.59a3.9 3.9 0 0 0-2.03.55c-1.948 1.124-2.634 3.648-1.51 5.596 1.125 1.948 3.65 2.633 5.597 1.509 1.948-1.125 2.634-3.65 1.509-5.597a4.12 4.12 0 0 0-3.566-2.057Z" fill="#fff"/><path d="M40.056 35.642a1.17 1.17 0 0 1-1.18-1.18v-11.33c0-.658.521-1.179 1.18-1.179.658 0 1.18.521 1.18 1.18v11.33a1.17 1.17 0 0 1-1.18 1.18ZM35.392 32.818c-.412 0-.823-.22-1.043-.604l-9.382-16.24a1.175 1.175 0 0 1 .44-1.62 1.175 1.175 0 0 1 1.618.44l9.382 16.24c.33.577.137 1.29-.439 1.62a.93.93 0 0 1-.576.164Z" fill="#fff"/><path d="M35.612 33.173c-.301 0-.603-.11-.85-.357a1.176 1.176 0 0 1 0-1.673l4.28-4.28a1.176 1.176 0 0 1 1.673 0l4.252 4.253a1.176 1.176 0 0 1 0 1.673 1.176 1.176 0 0 1-1.673 0l-3.402-3.402-3.43 3.43a1.184 1.184 0 0 1-.85.356Z" fill="#fff"/><path d="M31.002 40.773a1.202 1.202 0 0 1-1.152-.878l-1.564-5.87c-.164-.631.22-1.29.85-1.454l5.817-1.564c.63-.165 1.289.22 1.453.85.165.631-.219 1.29-.85 1.454l-4.664 1.262 1.262 4.691c.165.631-.22 1.29-.85 1.454a.988.988 0 0 1-.302.055Z" fill="#fff"/><path d="M35.254 48.537c-.11 0-.22 0-.301-.055l-5.844-1.564c-.302-.082-.576-.274-.713-.548a1.163 1.163 0 0 1-.11-.906l1.564-5.816a1.199 1.199 0 0 1 1.454-.85c.63.164 1.015.823.85 1.454l-1.262 4.664 4.692 1.262c.63.164 1.014.823.85 1.454-.165.548-.631.905-1.18.905Z" fill="#fff"/><path d="M39.864 53.008c-.301 0-.603-.11-.85-.357L34.762 48.4a1.176 1.176 0 0 1 0-1.673 1.176 1.176 0 0 1 1.673 0l3.402 3.402 3.43-3.43a1.176 1.176 0 0 1 1.673 0 1.176 1.176 0 0 1 0 1.674l-4.252 4.307c-.22.22-.522.33-.824.33Z" fill="#fff"/><path d="M44.5 48.563a1.202 1.202 0 0 1-1.152-.878c-.165-.63.22-1.29.85-1.454l4.664-1.262-1.262-4.69c-.165-.632.22-1.29.85-1.455.631-.164 1.29.22 1.454.85l1.564 5.844c.165.631-.22 1.29-.85 1.454l-5.816 1.564c-.11.027-.192.027-.302.027Z" fill="#fff"/><path d="M48.78 40.773c-.11 0-.22 0-.302-.055a1.198 1.198 0 0 1-.85-1.454l1.261-4.663-4.69-1.262a1.198 1.198 0 0 1-.851-1.454 1.198 1.198 0 0 1 1.454-.85l5.843 1.563c.631.165 1.015.823.85 1.454l-1.563 5.816c-.165.548-.631.905-1.152.905ZM40.138 24.313h-.083c-.192 0-.384-.055-.576-.137l-4.417-2.415c-.493-.274-.74-.85-.576-1.371l4.39-15.171V5.19c0-.603.439-1.097 1.015-1.18a1.184 1.184 0 0 1 1.317.851l4.499 15.555c.164.549-.083 1.097-.576 1.372l-4.417 2.414c-.192.055-.384.11-.576.11Zm-3.1-4.198 3.072 1.674 3.073-1.674-3.073-10.59-3.072 10.59ZM35.363 38.167a1.25 1.25 0 0 1-.603-.165l-9.822-5.651c-.576-.33-.768-1.07-.439-1.619.33-.576 1.07-.768 1.619-.439l9.821 5.652c.576.329.768 1.07.44 1.618-.22.384-.604.604-1.016.604Z" fill="#fff"/><path d="M21.235 35.122c-.329 0-.63-.138-.85-.357L9.41 23.353a1.2 1.2 0 0 1-.52-1.482c.219-.548.822-.85 1.398-.713l15.72 3.868c.549.137.905.631.905 1.18l-.137 5.047c0 .192-.055.385-.165.577l-.054.082c-.11.165-.247.33-.412.411l-4.307 2.634c-.165.11-.384.165-.604.165Zm-7.434-10.645 7.626 7.929 2.99-1.81.083-3.485-10.7-2.634ZM25.378 49.14c-.412 0-.823-.22-1.043-.604a1.175 1.175 0 0 1 .44-1.619l9.82-5.651a1.175 1.175 0 0 1 1.62.439c.328.576.136 1.29-.44 1.619l-9.821 5.65a1.08 1.08 0 0 1-.576.166Z" fill="#fff"/><path d="M9.796 58.11c-.356 0-.713-.164-.932-.466a1.208 1.208 0 0 1 .082-1.563l11.22-11.687a1.17 1.17 0 0 1 1.482-.192l4.307 2.633c.164.11.302.247.411.412l.055.082c.11.165.165.357.165.576l.11 5.048c0 .549-.357 1.043-.906 1.18l-15.363 3.813c-.22.11-.411.165-.63.165ZM21.21 46.754l-7.627 7.928 10.7-2.633-.083-3.484-2.99-1.81ZM39.7 57.59c-.658 0-1.18-.522-1.18-1.18V45.08c0-.658.522-1.18 1.18-1.18.659 0 1.18.522 1.18 1.18v11.33c.027.659-.521 1.18-1.18 1.18Z" fill="#fff"/><path d="M39.7 75.586c-.522 0-.988-.356-1.153-.85l-4.5-15.555c-.164-.549.083-1.097.577-1.372l4.417-2.414c.164-.082.384-.137.576-.137h.082c.192 0 .384.055.576.137l4.417 2.414c.494.275.74.85.576 1.372l-4.39 15.17v.028c0 .604-.438 1.097-1.014 1.18-.055 0-.11.027-.165.027Zm-3.1-16.158 3.072 10.59 3.072-10.59-3.072-1.674-3.073 1.674ZM54.212 49.442c-.192 0-.412-.055-.604-.164l-9.821-5.68c-.576-.328-.768-1.069-.439-1.618.33-.576 1.07-.768 1.619-.439l9.82 5.652c.577.329.769 1.07.44 1.618-.22.412-.604.631-1.015.631Z" fill="#fff"/><path d="M69.766 58.44c-.082 0-.192 0-.274-.028l-15.72-3.868a1.203 1.203 0 0 1-.905-1.18l.11-5.047c0-.193.055-.385.165-.577l.054-.082c.11-.165.247-.33.412-.411l4.307-2.634a1.17 1.17 0 0 1 1.481.192L70.37 56.217a1.2 1.2 0 0 1 .521 1.482c-.22.439-.658.74-1.125.74Zm-14.512-6.008 10.699 2.633-7.627-7.928-2.99 1.81-.082 3.484ZM44.555 38.441c-.412 0-.823-.22-1.043-.603a1.175 1.175 0 0 1 .44-1.619l9.82-5.651a1.175 1.175 0 0 1 1.619.439c.33.576.137 1.29-.44 1.618l-9.793 5.679c-.192.11-.384.137-.603.137Z" fill="#fff"/><path d="M58.711 35.478c-.22 0-.439-.055-.631-.164l-4.307-2.634a1.471 1.471 0 0 1-.412-.411l-.054-.083a1.014 1.014 0 0 1-.165-.576l-.11-5.047c0-.55.357-1.043.906-1.18L69.3 21.57a1.188 1.188 0 0 1 1.537.301c.356.467.329 1.125-.083 1.564L59.59 35.122a1.2 1.2 0 0 1-.878.356Zm-3.155-4.499 2.99 1.81 7.627-7.927-10.7 2.633.083 3.484ZM29.96 23.489c-.11 0-.248-.027-.357-.055l-6.255-1.975c-.631-.192-.988-.878-.768-1.482.192-.63.878-.987 1.481-.768l5.02 1.591 1.207-5.185a1.174 1.174 0 0 1 1.427-.877c.631.137 1.043.795.878 1.426l-1.509 6.447c-.082.33-.274.604-.576.768-.137.055-.357.11-.549.11ZM30.59 40.8H11.827a1.17 1.17 0 0 1-1.18-1.18c0-.658.522-1.18 1.18-1.18h18.765c.658 0 1.18.522 1.18 1.18 0 .631-.522 1.18-1.18 1.18Z" fill="#fff"/><path d="M14.953 45.244c-.329 0-.63-.137-.877-.384a1.177 1.177 0 0 1 .082-1.673l3.868-3.566-3.868-3.65c-.494-.438-.494-1.206-.055-1.673.439-.493 1.207-.493 1.673-.055l4.829 4.527c.247.22.384.549.384.878 0 .33-.137.658-.384.878l-4.829 4.417a1.323 1.323 0 0 1-.823.301ZM25.708 65.162a1.25 1.25 0 0 1-.604-.164c-.576-.33-.768-1.07-.439-1.619l9.383-16.24c.329-.577 1.07-.769 1.618-.44.576.33.769 1.07.44 1.62l-9.383 16.24c-.22.384-.604.603-1.015.603Z" fill="#fff"/><path d="M31.14 64.668a1.174 1.174 0 0 1-1.152-.933l-1.153-5.13-5.102 1.537a1.185 1.185 0 0 1-1.482-.796 1.185 1.185 0 0 1 .796-1.481l6.31-1.92a1.3 1.3 0 0 1 .96.11c.274.164.494.438.548.767l1.427 6.392c.137.631-.274 1.29-.905 1.427-.083.027-.165.027-.247.027ZM53.745 65.326c-.411 0-.822-.22-1.042-.604l-9.382-16.24a1.175 1.175 0 0 1 .439-1.62 1.175 1.175 0 0 1 1.618.44l9.383 16.24c.329.576.137 1.29-.44 1.619a1.08 1.08 0 0 1-.575.165Z" fill="#fff"/><path d="M48.285 64.859c-.082 0-.192 0-.274-.028a1.174 1.174 0 0 1-.878-1.426l1.509-6.447c.082-.33.274-.604.576-.768a1.3 1.3 0 0 1 .96-.11l6.255 1.975c.631.192.988.878.768 1.482-.192.63-.878.987-1.481.768l-5.02-1.591-1.208 5.185c-.164.603-.658.96-1.207.96ZM67.929 41.129H49.164a1.17 1.17 0 0 1-1.18-1.18c0-.658.522-1.18 1.18-1.18h18.765c.658 0 1.18.522 1.18 1.18a1.17 1.17 0 0 1-1.18 1.18Z" fill="#fff"/><path d="M64.774 45.628a1.21 1.21 0 0 1-.823-.33L59.15 40.8a1.184 1.184 0 0 1-.384-.878c0-.33.137-.658.384-.878l4.828-4.417a1.177 1.177 0 0 1 1.673.082 1.177 1.177 0 0 1-.082 1.674l-3.868 3.566 3.896 3.649c.466.439.493 1.207.055 1.674a1.27 1.27 0 0 1-.878.356ZM44.665 33.01a1.25 1.25 0 0 1-.604-.166c-.576-.329-.768-1.07-.438-1.618l9.382-16.24c.329-.577 1.07-.769 1.618-.44.577.33.769 1.07.44 1.619l-9.356 16.24c-.219.385-.63.604-1.042.604Z" fill="#fff"/><path d="M50.042 23.655c-.22 0-.412-.055-.604-.165a1.134 1.134 0 0 1-.549-.768l-1.426-6.392c-.137-.631.274-1.29.905-1.427s1.29.275 1.427.906l1.152 5.13 5.103-1.537c.63-.192 1.289.165 1.481.796a1.185 1.185 0 0 1-.795 1.482l-6.338 1.92c-.11.027-.247.055-.356.055ZM21.208 9.472c.576-1.016 1.866-1.345 2.88-.769 1.016.576 1.345 1.866.769 2.88-.576 1.016-1.866 1.345-2.88.769-1.016-.604-1.345-1.893-.769-2.88ZM4.282 40.773c-.576-1.015-.246-2.304.769-2.88 1.015-.576 2.304-.247 2.88.768.576 1.015.247 2.304-.768 2.88-.988.604-2.277.247-2.88-.768ZM24.448 70.464a2.112 2.112 0 1 0-2.988-2.987 2.112 2.112 0 0 0 2.988 2.987ZM57.249 71.067a2.112 2.112 0 1 0-1.093-4.08 2.112 2.112 0 0 0 1.093 4.08ZM75.445 38.77c.576 1.016.247 2.305-.768 2.881-1.015.576-2.305.247-2.88-.768-.577-1.015-.248-2.304.767-2.88a2.08 2.08 0 0 1 2.88.768ZM58.849 11.054a2.112 2.112 0 1 0-4.112-.971 2.112 2.112 0 0 0 4.112.97Z" fill="#fff"/></svg>