<svg width="80" height="80" fill="none" xmlns="http://www.w3.org/2000/svg"><path d="M40.214 31.122c-.659 0-1.207-.549-1.18-1.207l.11-19.89c0-.658.576-1.18 1.207-1.18.658 0 1.18.55 1.18 1.208l-.11 19.89a1.212 1.212 0 0 1-1.207 1.179ZM40.131 45.579c-3.155 0-5.733-2.58-5.733-5.734 0-3.155 2.578-5.734 5.733-5.734s5.734 2.58 5.734 5.734c0 3.155-2.579 5.734-5.734 5.734Zm0-9.053a3.36 3.36 0 0 0-3.347 3.346 3.36 3.36 0 0 0 3.347 3.347 3.36 3.36 0 0 0 3.347-3.347 3.343 3.343 0 0 0-3.347-3.346Z" fill="#fff"/><path d="M30.2 58.638a1.08 1.08 0 0 1-.575-.165c-.412-.247-.659-.686-.604-1.18l1.344-11.769-10.89-4.361c-.44-.193-.742-.604-.742-1.098 0-.494.275-.905.714-1.097l10.863-4.719-1.646-11.604a1.211 1.211 0 0 1 .576-1.18c.412-.247.933-.22 1.317.055l9.52 7.05 9.218-7.242c.383-.302.905-.33 1.316-.11.412.247.659.686.604 1.18L49.87 34.167l10.89 4.362c.44.192.741.603.741 1.097s-.274.906-.713 1.098l-10.864 4.718 1.646 11.605c.055.466-.164.932-.576 1.18-.411.246-.932.219-1.316-.056l-9.52-7.05-9.218 7.242c-.22.192-.466.275-.74.275ZM23.04 40.01l9.081 3.649a1.2 1.2 0 0 1 .74 1.234l-1.124 9.85 7.709-6.036c.411-.33 1.015-.33 1.454-.028l7.956 5.898-1.372-9.684c-.083-.52.22-1.042.713-1.261l9.08-3.951-9.08-3.649a1.2 1.2 0 0 1-.74-1.234l1.124-9.849-7.709 6.036c-.411.329-1.015.329-1.454.027l-7.955-5.898 1.371 9.684c.083.521-.22 1.042-.713 1.262l-9.08 3.95ZM40.187 19.846a1.2 1.2 0 0 1-.686-.219l-5.486-3.978a1.214 1.214 0 0 1-.275-1.673 1.214 1.214 0 0 1 1.674-.275l4.773 3.457 4.938-3.621a1.213 1.213 0 0 1 1.674.247c.384.52.274 1.289-.247 1.673l-5.624 4.115c-.275.192-.494.274-.74.274Z" fill="#fff"/><path d="M31.573 36.032c-.192 0-.412-.055-.604-.165l-17.173-10.04c-.576-.33-.768-1.07-.44-1.62.33-.575 1.07-.767 1.62-.438l17.173 10.04c.576.33.768 1.07.439 1.62-.22.383-.604.603-1.015.603Z" fill="#fff"/><path d="M15.633 33.18c-.467 0-.878-.275-1.098-.713-.274-.604 0-1.317.604-1.564l5.377-2.414-.659-6.09c-.082-.66.412-1.235 1.043-1.318a1.218 1.218 0 0 1 1.317 1.043l.74 6.94c.055.522-.219 1.016-.685 1.208l-6.173 2.77c-.137.11-.33.138-.466.138ZM14.206 55.812c-.412 0-.823-.22-1.042-.603a1.175 1.175 0 0 1 .438-1.619l17.284-9.848a1.175 1.175 0 0 1 1.618.439c.33.576.137 1.289-.439 1.618l-17.283 9.849a1.08 1.08 0 0 1-.576.164Z" fill="#fff"/><path d="M21.065 58.337h-.11c-.658-.055-1.124-.659-1.07-1.317l.604-5.87-5.596-2.47c-.604-.274-.878-.96-.604-1.564.274-.603.96-.877 1.564-.603l6.392 2.826c.466.219.768.685.713 1.207l-.686 6.72a1.213 1.213 0 0 1-1.207 1.07ZM39.94 70.874c-.659 0-1.208-.549-1.18-1.207l.11-19.89c0-.658.548-1.18 1.18-1.18.658 0 1.179.55 1.179 1.208l-.11 19.89c.028.658-.521 1.179-1.18 1.179Z" fill="#fff"/><path d="M34.455 66.374c-.357 0-.74-.165-.96-.494a1.213 1.213 0 0 1 .247-1.673l5.624-4.115a1.194 1.194 0 0 1 1.399 0l5.486 3.95c.522.384.659 1.125.275 1.674a1.214 1.214 0 0 1-1.674.274l-4.773-3.457-4.938 3.621a1.2 1.2 0 0 1-.686.22ZM65.865 56.114c-.192 0-.412-.055-.604-.165L48.088 45.91c-.576-.33-.768-1.07-.44-1.62.33-.575 1.07-.767 1.62-.438l17.173 10.04c.576.33.768 1.07.439 1.62-.192.41-.604.603-1.015.603Z" fill="#fff"/><path d="M59.226 58.61a1.19 1.19 0 0 1-1.18-1.07l-.74-6.94c-.055-.521.22-1.015.686-1.207l6.172-2.77c.604-.275 1.317 0 1.564.603.274.603 0 1.317-.604 1.563l-5.377 2.415.659 6.09c.082.658-.412 1.234-1.043 1.317h-.137ZM48.773 36.142c-.411 0-.823-.219-1.042-.603a1.175 1.175 0 0 1 .439-1.619l17.283-9.848a1.175 1.175 0 0 1 1.619.439c.329.576.137 1.289-.44 1.618L49.35 35.978c-.192.11-.384.164-.576.164ZM40.324 1a2.869 2.869 0 0 0-2.853 2.853 2.869 2.869 0 0 0 2.853 2.853 2.869 2.869 0 0 0 2.853-2.853A2.869 2.869 0 0 0 40.324 1ZM10.475 19.215a2.838 2.838 0 0 0-3.895 1.043 2.726 2.726 0 0 0-.275 2.167 2.79 2.79 0 0 0 1.317 1.728c.439.247.933.384 1.427.384.246 0 .493-.027.74-.11a2.79 2.79 0 0 0 1.729-1.316c.795-1.344.329-3.1-1.043-3.896ZM9.598 54.934c-.74-.192-1.509-.11-2.167.274a2.838 2.838 0 0 0-1.043 3.896 2.79 2.79 0 0 0 1.728 1.316c.247.055.494.11.741.11.494 0 .988-.137 1.427-.384a2.79 2.79 0 0 0 1.316-1.728 2.972 2.972 0 0 0-.274-2.167c-.384-.631-.987-1.125-1.728-1.317ZM39.939 73.013a2.869 2.869 0 0 0-2.853 2.853 2.869 2.869 0 0 0 2.853 2.853 2.869 2.869 0 0 0 2.853-2.853 2.834 2.834 0 0 0-2.853-2.853ZM72.641 55.538a2.726 2.726 0 0 0-2.167-.274 2.79 2.79 0 0 0-1.728 1.317 2.838 2.838 0 0 0 1.042 3.896c.439.247.933.384 1.427.384.246 0 .493-.028.74-.11a2.79 2.79 0 0 0 1.729-1.317 2.726 2.726 0 0 0 .274-2.167 2.866 2.866 0 0 0-1.317-1.729ZM70.665 24.785c.247.055.494.11.741.11.494 0 .988-.137 1.427-.384a2.838 2.838 0 0 0 1.042-3.896 2.838 2.838 0 0 0-3.895-1.042 2.838 2.838 0 0 0-1.043 3.895 2.997 2.997 0 0 0 1.728 1.317Z" fill="#fff"/><path d="M64.904 33.317c-.164 0-.329-.028-.493-.11l-6.392-2.826c-.467-.219-.769-.685-.714-1.207l.686-6.72c.055-.66.659-1.126 1.317-1.07.658.054 1.125.658 1.07 1.316l-.604 5.87 5.597 2.47c.603.274.878.96.603 1.564a1.191 1.191 0 0 1-1.07.713Z" fill="#fff"/></svg>