<svg width="80" height="80" fill="none" xmlns="http://www.w3.org/2000/svg"><path d="M39.998 35.688a1.17 1.17 0 0 1-1.18-1.18V3.18c0-.659.522-1.18 1.18-1.18.658 0 1.18.521 1.18 1.18v31.329c0 .658-.549 1.18-1.18 1.18Z" fill="#fff"/><path d="M39.889 25.621c-.302 0-.604-.11-.85-.357L28.64 14.867a1.176 1.176 0 0 1 0-1.674 1.176 1.176 0 0 1 1.673 0l9.547 9.547 9.355-9.354a1.176 1.176 0 0 1 1.673 0 1.176 1.176 0 0 1 0 1.673L40.712 25.237c-.22.247-.522.384-.823.384Z" fill="#fff"/><path d="M39.834 14.839c-.302 0-.603-.11-.85-.357l-5.158-5.158a1.176 1.176 0 0 1 0-1.673 1.176 1.176 0 0 1 1.674 0l4.307 4.307 4.499-4.444a1.176 1.176 0 0 1 1.673 0 1.176 1.176 0 0 1 0 1.673l-5.294 5.295a1.184 1.184 0 0 1-.85.357ZM35.528 38.048a1.25 1.25 0 0 1-.603-.164L7.793 22.219c-.576-.33-.768-1.07-.44-1.619.33-.576 1.07-.768 1.62-.439l27.131 15.665c.577.33.769 1.07.44 1.619-.22.384-.604.603-1.016.603Z" fill="#fff"/><path d="M12.539 36.896a1.202 1.202 0 0 1-1.152-.878c-.165-.631.22-1.29.85-1.454l13.031-3.512-3.402-12.756c-.164-.631.22-1.29.85-1.454.632-.165 1.29.22 1.455.85l3.73 13.91c.083.3.028.63-.109.904a1.188 1.188 0 0 1-.713.55l-14.183 3.812c-.138 0-.247.028-.357.028Z" fill="#fff"/><path d="M10.345 29.625a1.202 1.202 0 0 1-1.153-.877c-.164-.631.22-1.29.85-1.454l5.9-1.591-1.647-6.09c-.165-.632.22-1.29.85-1.455.632-.164 1.29.22 1.454.85l1.948 7.243c.083.302.028.631-.11.905a1.189 1.189 0 0 1-.713.55l-7.05 1.892c-.137 0-.22.027-.33.027ZM8.203 58.733c-.411 0-.823-.22-1.042-.604a1.175 1.175 0 0 1 .438-1.618l27.132-15.665a1.175 1.175 0 0 1 1.619.439c.33.576.137 1.29-.439 1.619L8.779 58.568a1.08 1.08 0 0 1-.576.165Z" fill="#fff"/><path d="M22.825 62.41c-.11 0-.22 0-.302-.027a1.198 1.198 0 0 1-.85-1.454l3.484-13.031-12.757-3.43a1.198 1.198 0 0 1-.85-1.454 1.199 1.199 0 0 1 1.454-.85l13.936 3.704c.631.164 1.015.823.85 1.454l-3.813 14.183a1.195 1.195 0 0 1-1.152.905Z" fill="#fff"/><path d="M15.446 60.682c-.11 0-.22 0-.302-.028a1.199 1.199 0 0 1-.85-1.454l1.591-5.898-6.09-1.646a1.198 1.198 0 0 1-.85-1.454 1.199 1.199 0 0 1 1.453-.85l7.243 1.947c.63.165 1.015.823.85 1.454l-1.893 7.05a1.202 1.202 0 0 1-1.152.879ZM39.586 77.086c-.658 0-1.18-.521-1.18-1.18V44.577c0-.658.522-1.18 1.18-1.18.658 0 1.18.522 1.18 1.18v31.33a1.17 1.17 0 0 1-1.18 1.179Z" fill="#fff"/><path d="M50.066 66.25c-.301 0-.603-.11-.85-.357l-9.547-9.547-9.355 9.355a1.176 1.176 0 0 1-1.673 0 1.176 1.176 0 0 1 0-1.673L38.819 53.85a1.176 1.176 0 0 1 1.673 0L50.89 64.247a1.176 1.176 0 0 1 0 1.674c-.22.219-.522.329-.824.329Z" fill="#fff"/><path d="M34.43 71.928c-.302 0-.604-.11-.85-.356a1.176 1.176 0 0 1 0-1.674l5.294-5.294c.439-.44 1.234-.44 1.673 0l5.158 5.157a1.176 1.176 0 0 1 0 1.674 1.176 1.176 0 0 1-1.673 0l-4.308-4.308-4.471 4.445c-.22.247-.522.356-.823.356ZM71.164 59.09c-.192 0-.412-.056-.604-.165L43.43 43.26c-.577-.33-.769-1.07-.44-1.618.33-.577 1.07-.769 1.62-.44L71.74 56.867c.576.33.768 1.07.439 1.619-.192.384-.603.603-1.015.603Z" fill="#fff"/><path d="M56.54 62.3a1.202 1.202 0 0 1-1.151-.878l-3.704-13.909a1.295 1.295 0 0 1 .11-.905c.164-.274.411-.466.713-.549l14.183-3.813c.631-.165 1.29.22 1.454.85.165.632-.22 1.29-.85 1.455l-13.031 3.484 3.43 12.756c.164.631-.22 1.29-.851 1.454a.985.985 0 0 1-.302.055Z" fill="#fff"/><path d="M64.114 60.984a1.202 1.202 0 0 1-1.153-.878l-1.947-7.242c-.165-.631.22-1.29.85-1.454l7.05-1.893c.632-.165 1.29.22 1.455.85.164.631-.22 1.29-.85 1.454l-5.9 1.591 1.647 6.09c.164.631-.22 1.29-.85 1.454-.083 0-.193.028-.302.028ZM44.25 38.378c-.41 0-.822-.22-1.042-.603a1.175 1.175 0 0 1 .44-1.619l27.131-15.664a1.175 1.175 0 0 1 1.619.438c.329.577.137 1.29-.44 1.62L44.855 38.24c-.192.11-.411.137-.603.137Z" fill="#fff"/><path d="M66.829 36.977c-.11 0-.22 0-.302-.027l-13.909-3.73a1.198 1.198 0 0 1-.85-1.455l3.813-14.183a1.199 1.199 0 0 1 1.454-.85c.63.164 1.015.823.85 1.454l-3.484 13.03 12.757 3.43c.63.164 1.015.823.85 1.454-.164.548-.63.877-1.18.877Z" fill="#fff"/><path d="M69.49 29.79c-.11 0-.22 0-.301-.027l-7.243-1.948c-.302-.082-.576-.274-.713-.549a1.162 1.162 0 0 1-.11-.905l1.893-7.05a1.199 1.199 0 0 1 1.454-.851c.63.165 1.015.823.85 1.454l-1.59 5.898 6.09 1.646c.63.165 1.015.823.85 1.454-.192.521-.658.878-1.18.878ZM39.78 45.783c-3.43 0-6.228-2.798-6.228-6.227 0-3.43 2.798-6.228 6.227-6.228 3.43 0 6.228 2.798 6.228 6.228 0 3.429-2.799 6.227-6.228 6.227Zm0-10.096a3.852 3.852 0 0 0-3.842 3.841 3.852 3.852 0 0 0 3.841 3.84 3.852 3.852 0 0 0 3.84-3.84 3.852 3.852 0 0 0-3.84-3.84ZM35.279 25.757 31.08 21.64c-.384-.384-.96-.438-1.426-.191-.467.246-.686.795-.576 1.316l1.426 6.008c.082.302.274.576.549.741l2.798 1.646c.192.11.412.165.604.165s.411-.055.603-.165c.384-.22.604-.604.604-1.043l-.028-3.538c0-.302-.137-.604-.356-.823ZM30.176 39.447c0-.439-.22-.823-.603-1.042l-3.1-1.756a1.163 1.163 0 0 0-.906-.11l-5.678 1.564a1.17 1.17 0 0 0-.878 1.125c0 .52.329.987.85 1.152l5.926 1.783c.11.027.22.055.33.055.191 0 .41-.055.575-.165l2.826-1.59c.439-.193.658-.577.658-1.016ZM34.895 47.814a1.189 1.189 0 0 0-1.207 0l-3.073 1.81a1.17 1.17 0 0 0-.548.741l-1.482 5.68a1.162 1.162 0 0 0 .549 1.316c.192.11.384.165.604.165.301 0 .603-.11.823-.33l4.499-4.252c.246-.22.356-.521.384-.85l.027-3.238a1.101 1.101 0 0 0-.576-1.042ZM49.051 50.31a1.245 1.245 0 0 0-.549-.742l-2.798-1.646a1.188 1.188 0 0 0-1.207 0c-.384.22-.603.604-.603 1.043l.027 3.539c0 .329.137.63.357.85l4.197 4.115c.22.22.521.33.823.33.192 0 .411-.055.576-.165.466-.247.686-.796.576-1.317l-1.399-6.008ZM59.667 38.678l-5.925-1.783a1.244 1.244 0 0 0-.933.11l-2.826 1.59c-.384.22-.603.604-.603 1.043 0 .439.22.823.603 1.042l3.1 1.756c.193.11.385.165.577.165.11 0 .219-.028.329-.055l5.678-1.564a1.17 1.17 0 0 0 .878-1.125c-.027-.548-.356-1.042-.878-1.18ZM44.661 31.27c.192.11.384.165.604.165.22 0 .411-.054.603-.164l3.073-1.81a1.17 1.17 0 0 0 .549-.742l1.481-5.678a1.163 1.163 0 0 0-.548-1.317 1.2 1.2 0 0 0-1.427.164l-4.5 4.253c-.246.22-.356.52-.383.85l-.028 3.237c-.027.44.192.823.576 1.043Z" fill="#fff"/></svg>