<svg width="80" height="80" fill="none" xmlns="http://www.w3.org/2000/svg"><path d="M40.465 46.64c-3.484 0-6.337-2.853-6.337-6.337 0-3.484 2.853-6.337 6.337-6.337 3.484 0 6.337 2.853 6.337 6.337 0 3.484-2.853 6.337-6.337 6.337Zm0-10.288a3.951 3.951 0 0 0-3.95 3.951c0 2.167 1.783 3.95 3.95 3.95a3.951 3.951 0 0 0 0-7.9ZM27.078 65.295c-.412 0-.823-.22-1.043-.603a1.175 1.175 0 0 1 .44-1.619c6.09-3.511 8.174-11.33 4.663-17.393-3.512-6.09-11.33-8.175-17.393-4.664-.576.33-1.29.138-1.619-.439a1.175 1.175 0 0 1 .44-1.618c7.214-4.17 16.487-1.674 20.657 5.541 4.17 7.215 1.673 16.488-5.542 20.658a1.495 1.495 0 0 1-.603.137Z" fill="#fff"/><path d="M54.4 64.965a1.17 1.17 0 0 1-1.179-1.18c0-7.023-5.706-12.73-12.73-12.73-7.022 0-12.728 5.707-12.728 12.73a1.17 1.17 0 0 1-1.18 1.18 1.17 1.17 0 0 1-1.18-1.18c0-8.34 6.776-15.116 15.116-15.116s15.116 6.776 15.116 15.116c-.055.658-.576 1.18-1.234 1.18Z" fill="#fff"/><path d="M53.852 65.294a1.25 1.25 0 0 1-.603-.164c-7.216-4.17-9.712-13.443-5.542-20.658 2.03-3.484 5.267-6.008 9.19-7.05 3.896-1.043 7.983-.521 11.467 1.509.576.329.768 1.07.44 1.618-.33.576-1.07.768-1.62.44a12.648 12.648 0 0 0-9.656-1.263 12.658 12.658 0 0 0-7.736 5.926c-3.512 6.09-1.427 13.881 4.663 17.393.577.329.769 1.07.44 1.618-.247.412-.632.631-1.043.631Z" fill="#fff"/><path d="M60.821 43.678c-1.317 0-2.633-.165-3.95-.521a15.033 15.033 0 0 1-9.19-7.05c-4.17-7.216-1.674-16.488 5.541-20.658a1.175 1.175 0 0 1 1.619.439c.329.576.137 1.289-.44 1.618-6.09 3.512-8.175 11.33-4.663 17.393a12.658 12.658 0 0 0 7.736 5.926c3.292.878 6.721.439 9.657-1.262a1.175 1.175 0 0 1 1.618.439c.33.576.138 1.29-.438 1.618-2.277 1.372-4.856 2.058-7.49 2.058Z" fill="#fff"/><path d="M53.853 65.295c-.22 0-.412-.055-.604-.165a15.061 15.061 0 0 1-7.544-12.976 12.787 12.787 0 0 0-5.212-1.125 12.69 12.69 0 0 0-5.213 1.125c-.055 5.185-2.77 10.205-7.544 12.976-.357.22-.823.22-1.18 0l-.548-.329a1.234 1.234 0 0 1-.604-1.043c0-5.541 2.99-10.397 7.462-13.03a13.15 13.15 0 0 0-1.646-5.076 12.715 12.715 0 0 0-3.566-3.95c-1.098.63-2.277 1.097-3.54 1.454-3.895 1.042-7.982.521-11.466-1.509a1.234 1.234 0 0 1-.604-1.042v-.631c0-.44.22-.823.604-1.043a15.102 15.102 0 0 1 15.006-.055 12.567 12.567 0 0 0 3.593-3.978c.933-1.618 1.482-3.347 1.647-5.075-4.445-2.634-7.462-7.49-7.462-13.03 0-.44.219-.824.603-1.043l.549-.33c.356-.219.823-.219 1.18 0a15.062 15.062 0 0 1 7.544 12.977 12.788 12.788 0 0 0 5.212 1.124c1.865 0 3.621-.411 5.212-1.124.055-5.185 2.771-10.206 7.545-12.976.356-.22.823-.22 1.18 0l.548.329c.357.22.603.603.603 1.042 0 5.542-2.99 10.397-7.461 13.031a12.418 12.418 0 0 0 1.646 5.075 12.358 12.358 0 0 0 3.566 3.95c1.097-.63 2.304-1.097 3.539-1.453 3.895-1.043 7.983-.521 11.467 1.509.357.22.604.603.604 1.042v.631c0 .439-.22.823-.604 1.043-3.484 2.03-7.571 2.55-11.467 1.508a14.342 14.342 0 0 1-3.539-1.454 12.963 12.963 0 0 0-3.566 3.95c-.933 1.62-1.482 3.348-1.646 5.076 4.444 2.634 7.462 7.49 7.462 13.031 0 .439-.22.823-.604 1.043l-.549.329a1.045 1.045 0 0 1-.603.192Zm-21.097-11.66c-2.66 2.03-4.499 5.076-4.938 8.532a12.655 12.655 0 0 0 4.61-6.858 8.216 8.216 0 0 0 .328-1.673Zm15.418.028c.439 3.32 2.14 6.42 4.938 8.532a12.651 12.651 0 0 0-4.938-8.532Zm-18.518-13.36a15.047 15.047 0 0 1 3.567 4.17 14.7 14.7 0 0 1 1.838 5.185c1.673-.659 3.511-.988 5.404-.988 1.893 0 3.731.357 5.405.988a14.697 14.697 0 0 1 1.838-5.185 15.035 15.035 0 0 1 3.566-4.198 14.657 14.657 0 0 1-3.566-4.197 14.698 14.698 0 0 1-1.838-5.185c-1.674.658-3.512.988-5.405.988a15.36 15.36 0 0 1-5.404-.988 14.7 14.7 0 0 1-1.838 5.185 14.77 14.77 0 0 1-3.567 4.225Zm26.227 0c.521.22 1.07.411 1.646.548 2.77.741 5.651.55 8.23-.548-2.606-1.098-5.46-1.29-8.23-.549a10.53 10.53 0 0 0-1.646.549Zm-40.684 0a12.77 12.77 0 0 0 9.848 0c-3.072-1.29-6.639-1.372-9.848 0ZM53.112 18.41c-2.798 2.112-4.499 5.212-4.938 8.532 2.661-2.03 4.5-5.076 4.938-8.532Zm-25.294 0c.44 3.456 2.277 6.502 4.938 8.532-.439-3.32-2.14-6.42-4.938-8.532Z" fill="#fff"/><path d="M40.465 31.937a1.17 1.17 0 0 1-1.18-1.18V16.52c0-.658.521-1.18 1.18-1.18.658 0 1.18.522 1.18 1.18v14.239c0 .63-.522 1.18-1.18 1.18ZM32.18 36.709c-.193 0-.412-.055-.604-.165L19.23 29.412a1.208 1.208 0 0 1-.603-1.043c0-.192.055-.412.165-.604.329-.576 1.07-.768 1.618-.438l12.345 7.132c.384.22.604.631.604 1.043 0 .192-.055.411-.165.603-.192.384-.603.604-1.015.604ZM19.861 53.389c-.411 0-.823-.22-1.042-.604a1.175 1.175 0 0 1-.165-.603c0-.412.22-.824.604-1.043l12.345-7.133a1.175 1.175 0 0 1 1.619.44c.11.191.164.383.164.603 0 .411-.22.823-.603 1.042l-12.346 7.133c-.192.11-.384.165-.576.165ZM40.464 65.294a1.17 1.17 0 0 1-1.18-1.18V49.85c0-.659.521-1.18 1.18-1.18.658 0 1.18.521 1.18 1.18v14.238c0 .658-.522 1.207-1.18 1.207ZM61.094 53.389a1.25 1.25 0 0 1-.603-.165L48.145 46.09a1.209 1.209 0 0 1-.603-1.042c0-.192.055-.412.165-.604a1.175 1.175 0 0 1 1.618-.439L61.67 51.14c.384.22.604.631.604 1.042 0 .193-.055.412-.165.604-.22.384-.603.604-1.015.604ZM48.75 36.709c-.412 0-.824-.22-1.043-.604a1.175 1.175 0 0 1-.165-.603c0-.412.22-.823.603-1.043l12.346-7.132a1.175 1.175 0 0 1 1.618.438c.11.192.165.385.165.604 0 .412-.22.823-.604 1.043l-12.345 7.132a1.08 1.08 0 0 1-.576.165Z" fill="#fff"/><path d="M39.641 3.35a9.728 9.728 0 0 0-2.935 6.995 9.728 9.728 0 0 0 2.935 6.996c.22.22.522.357.85.357.303 0 .604-.11.851-.357a9.728 9.728 0 0 0 2.936-6.996 9.728 9.728 0 0 0-2.936-6.995c-.493-.467-1.262-.467-1.7 0ZM16.405 22.06c-2.304-1.317-4.965-1.674-7.516-.96a1.198 1.198 0 0 0-.85 1.453c.658 2.551 2.303 4.691 4.58 6.035a9.668 9.668 0 0 0 4.884 1.317c.878 0 1.756-.11 2.633-.356a1.198 1.198 0 0 0 .85-1.454c-.658-2.58-2.276-4.719-4.58-6.036ZM20.164 51.057c-2.552-.713-5.213-.357-7.517.96-2.305 1.317-3.923 3.457-4.582 6.036-.164.63.22 1.29.85 1.454a9.668 9.668 0 0 0 2.635.356c1.7 0 3.374-.439 4.883-1.316 2.304-1.317 3.923-3.457 4.581-6.036a1.198 1.198 0 0 0-.85-1.454ZM39.641 63.265a9.728 9.728 0 0 0-2.935 6.995 9.775 9.775 0 0 0 2.935 6.996c.22.22.522.357.85.357.303 0 .604-.11.851-.357a9.728 9.728 0 0 0 2.936-6.996 9.775 9.775 0 0 0-2.936-6.995c-.493-.467-1.262-.467-1.7 0ZM68.282 52.017c-2.304-1.317-4.965-1.673-7.516-.96a1.198 1.198 0 0 0-.85 1.454c.658 2.551 2.303 4.691 4.58 6.035a9.667 9.667 0 0 0 4.884 1.317c.878 0 1.755-.11 2.633-.356a1.199 1.199 0 0 0 .85-1.454c-.658-2.58-2.276-4.719-4.58-6.036ZM60.765 29.549a9.667 9.667 0 0 0 2.634.356c1.7 0 3.374-.439 4.883-1.317 2.305-1.316 3.923-3.456 4.582-6.035a1.199 1.199 0 0 0-.85-1.454c-2.552-.713-5.213-.357-7.518.96-2.304 1.317-3.923 3.457-4.581 6.036-.137.63.22 1.262.85 1.454Z" fill="#fff"/></svg>