<svg width="80" height="80" fill="none" xmlns="http://www.w3.org/2000/svg"><path d="M40.64 45.211a4.77 4.77 0 0 1-1.235-.164 4.7 4.7 0 0 1-2.88-2.222c-1.317-2.278-.521-5.185 1.728-6.502 2.277-1.317 5.185-.522 6.502 1.728 1.317 2.277.521 5.185-1.728 6.502-.769.439-1.564.658-2.387.658Zm-.028-7.133c-.411 0-.823.11-1.18.33-1.124.658-1.535 2.112-.877 3.237.33.548.823.933 1.454 1.097a2.334 2.334 0 0 0 1.81-.247c1.125-.658 1.537-2.112.878-3.237-.466-.74-1.262-1.18-2.085-1.18ZM37.237 35.775c-.11 0-.22-.027-.357-.055l-4.69-1.426a1.15 1.15 0 0 1-.796-.823l-3.868-13.388c-.165-.521.082-1.097.548-1.372a1.205 1.205 0 0 1 1.454.192l9.684 10.069c.275.301.384.713.302 1.097l-1.125 4.773c-.082.33-.274.604-.576.769a1.08 1.08 0 0 1-.576.164Zm-3.73-3.566 2.852.878.686-2.908-5.898-6.145 2.36 8.175ZM30.27 45.02c-.082 0-.192 0-.274-.028l-13.553-3.346a1.202 1.202 0 0 1-.905-1.153c0-.548.384-1.015.905-1.152l13.553-3.347c.384-.11.795 0 1.097.275l3.566 3.346c.247.22.384.55.384.878 0 .33-.137.631-.384.878l-3.566 3.347c-.247.165-.521.302-.823.302Zm-8.614-4.554 8.257 2.057 2.168-2.057-2.168-2.058-8.257 2.058ZM28.65 62.385a1.25 1.25 0 0 1-.603-.165 1.187 1.187 0 0 1-.549-1.372l3.868-13.415c.11-.384.412-.686.796-.823l4.691-1.426a1.23 1.23 0 0 1 .933.11c.274.164.494.438.576.768l1.125 4.773c.082.384-.028.795-.302 1.097L29.501 62c-.22.247-.521.385-.85.385Zm4.856-13.69-2.359 8.175 5.898-6.145-.686-2.908-2.853.878ZM52.573 62.385c-.33 0-.631-.137-.85-.356L42.038 51.96a1.249 1.249 0 0 1-.302-1.098l1.124-4.773c.083-.33.275-.604.577-.768a1.23 1.23 0 0 1 .932-.11l4.692 1.426c.384.11.685.412.795.824l3.868 13.414c.165.522-.082 1.098-.549 1.372a1.495 1.495 0 0 1-.603.137Zm-8.367-11.631 5.898 6.145-2.36-8.176-2.852-.877-.686 2.908ZM50.982 45.019c-.301 0-.603-.11-.823-.33l-3.566-3.346a1.184 1.184 0 0 1-.384-.878c0-.33.137-.631.384-.878l3.566-3.347a1.16 1.16 0 0 1 1.098-.274l13.552 3.347c.521.137.905.603.905 1.152 0 .549-.384 1.015-.905 1.152l-13.552 3.347a.976.976 0 0 1-.275.055Zm-1.838-4.554 2.168 2.057 8.257-2.057-8.257-2.058-2.168 2.058ZM44.014 35.775c-.22 0-.412-.055-.604-.164a1.265 1.265 0 0 1-.576-.769L41.71 30.07a1.25 1.25 0 0 1 .302-1.098l9.684-10.068a1.205 1.205 0 0 1 1.454-.192c.466.275.713.823.549 1.372L49.83 33.498c-.11.384-.412.686-.796.823l-4.691 1.427c-.11.027-.22.027-.33.027Zm.192-5.596.686 2.908 2.853-.878 2.359-8.176-5.898 6.146ZM40.667 24.39c-.659 0-1.18-.549-1.18-1.207l.055-15.83c0-.658.549-1.18 1.18-1.18.658 0 1.18.55 1.18 1.208l-.055 15.83c0 .658-.522 1.179-1.18 1.179Z" fill="#fff"/><path d="M40.667 24.692c-.302 0-.604-.11-.85-.357l-5.542-5.541a1.176 1.176 0 0 1 0-1.674 1.176 1.176 0 0 1 1.673 0l4.691 4.691 4.582-4.581a1.176 1.176 0 0 1 1.673 0 1.176 1.176 0 0 1 0 1.674l-5.377 5.431c-.22.22-.521.357-.85.357Z" fill="#fff"/><path d="M40.803 16.955c-.33 0-.631-.137-.85-.356l-2.744-2.744a1.176 1.176 0 0 1 0-1.673 1.176 1.176 0 0 1 1.674 0l1.92 1.92 1.975-1.975a1.176 1.176 0 0 1 1.674 0 1.176 1.176 0 0 1 0 1.674l-2.826 2.825c-.22.192-.521.33-.823.33ZM38.362 4.309c.713-1.262 2.332-1.674 3.593-.96 1.263.713 1.674 2.331.96 3.593-.713 1.262-2.331 1.674-3.593.96-1.262-.74-1.701-2.331-.96-3.593ZM25.688 32.976a1.25 1.25 0 0 1-.603-.164l-13.662-7.956c-.576-.33-.768-1.07-.44-1.619.33-.576 1.07-.768 1.62-.439l13.661 7.956c.576.33.768 1.07.44 1.619-.193.411-.604.603-1.016.603Z" fill="#fff"/><path d="M18.39 35.143a1.202 1.202 0 0 1-1.152-.878c-.164-.63.22-1.29.85-1.454l6.42-1.728-1.673-6.255c-.165-.63.22-1.29.85-1.454.631-.165 1.29.22 1.454.85l1.975 7.408c.083.301.028.63-.11.905a1.189 1.189 0 0 1-.713.549l-7.571 2.03c-.137.027-.247.027-.33.027Z" fill="#fff"/><path d="M15.565 30.15a1.202 1.202 0 0 1-1.152-.877c-.165-.631.22-1.29.85-1.454l2.607-.686-.713-2.716c-.165-.631.219-1.29.85-1.454.63-.165 1.29.22 1.454.85l1.042 3.869c.165.63-.22 1.289-.85 1.454l-3.786.987c-.11.027-.22.027-.302.027ZM11.27 25.552a2.634 2.634 0 1 0-1.602-5.019 2.634 2.634 0 0 0 1.602 5.018ZM11.916 58.104c-.412 0-.823-.22-1.043-.604a1.175 1.175 0 0 1 .44-1.618l13.744-7.874a1.175 1.175 0 0 1 1.618.44c.33.575.137 1.288-.439 1.618l-13.744 7.873a1.08 1.08 0 0 1-.576.165Z" fill="#fff"/><path d="M23.877 57.665c-.11 0-.22 0-.302-.027a1.199 1.199 0 0 1-.85-1.454l1.728-6.42-6.255-1.673a1.199 1.199 0 0 1-.85-1.454 1.198 1.198 0 0 1 1.454-.85l7.407 1.974c.302.083.576.275.713.55.165.273.192.603.11.904l-2.03 7.572a1.17 1.17 0 0 1-1.125.878Z" fill="#fff"/><path d="M18.144 57.61c-.11 0-.22 0-.302-.027a1.199 1.199 0 0 1-.85-1.454l.686-2.606-2.716-.741a1.198 1.198 0 0 1-.85-1.454 1.198 1.198 0 0 1 1.453-.85l3.868 1.042c.302.082.577.274.714.549.164.274.192.603.11.905l-.96 3.758c-.165.522-.632.878-1.153.878ZM11.449 60.326a2.634 2.634 0 1 0-2.016-4.866 2.634 2.634 0 0 0 2.016 4.866ZM40.531 74.729c-.658 0-1.18-.549-1.18-1.207l.055-15.83c0-.658.55-1.18 1.18-1.18.659 0 1.18.55 1.18 1.208l-.055 15.829a1.17 1.17 0 0 1-1.18 1.18Z" fill="#fff"/><path d="M46.1 64.168c-.302 0-.604-.11-.851-.356l-4.691-4.691-4.582 4.581a1.176 1.176 0 0 1-1.673 0 1.176 1.176 0 0 1 0-1.673l5.432-5.432c.439-.44 1.234-.44 1.673 0l5.542 5.541a1.176 1.176 0 0 1 0 1.674c-.22.247-.549.356-.85.356Z" fill="#fff"/><path d="M37.622 69.188c-.302 0-.603-.11-.85-.357a1.176 1.176 0 0 1 0-1.673l2.825-2.826a1.176 1.176 0 0 1 1.674 0l2.743 2.744a1.176 1.176 0 0 1 0 1.673 1.176 1.176 0 0 1-1.673 0l-1.92-1.92-1.976 1.975c-.22.274-.521.384-.823.384ZM40.613 77.94a2.634 2.634 0 1 0 0-5.268 2.634 2.634 0 0 0 0 5.267ZM69.225 58.27a1.25 1.25 0 0 1-.603-.165L54.96 50.15c-.576-.33-.768-1.07-.44-1.619.33-.576 1.07-.768 1.62-.439L69.8 56.048c.576.33.769 1.07.44 1.618-.193.412-.604.604-1.016.604Z" fill="#fff"/><path d="M57.291 57.612a1.202 1.202 0 0 1-1.152-.878l-1.975-7.407c-.165-.631.22-1.29.85-1.454l7.572-2.03c.631-.165 1.29.22 1.454.85.165.631-.22 1.29-.85 1.454l-6.42 1.729 1.674 6.254c.164.631-.22 1.29-.85 1.454-.11 0-.22.028-.303.028Z" fill="#fff"/><path d="M62.971 58.023a1.202 1.202 0 0 1-1.152-.878l-1.043-3.868c-.164-.631.22-1.29.85-1.454l3.76-1.015c.63-.165 1.289.22 1.453.85.165.631-.22 1.29-.85 1.454l-2.606.686.74 2.716c.165.63-.22 1.29-.85 1.454-.11.027-.192.055-.302.055ZM73.066 56.57a2.641 2.641 0 0 1-.96 3.593 2.641 2.641 0 0 1-3.594-.96c-.74-1.262-.302-2.853.96-3.594 1.262-.713 2.88-.302 3.594.96ZM55.59 33.059c-.412 0-.823-.22-1.043-.604a1.175 1.175 0 0 1 .44-1.618l13.744-7.874a1.175 1.175 0 0 1 1.618.44c.33.575.137 1.289-.439 1.618l-13.744 7.873c-.165.11-.357.165-.576.165Z" fill="#fff"/><path d="M62.778 35.2c-.11 0-.22 0-.302-.028l-7.407-1.975c-.302-.083-.576-.275-.713-.55a1.163 1.163 0 0 1-.11-.904l2.03-7.572a1.198 1.198 0 0 1 1.454-.85c.631.164 1.015.822.85 1.453l-1.728 6.42 6.255 1.673c.631.165 1.015.823.85 1.454-.191.522-.658.878-1.179.878Z" fill="#fff"/><path d="M65.96 30.48c-.11 0-.22 0-.302-.027L61.79 29.41a1.199 1.199 0 0 1-.85-1.454l1.015-3.758a1.199 1.199 0 0 1 1.453-.85c.632.164 1.016.823.851 1.454l-.686 2.606 2.716.74c.631.165 1.015.824.85 1.455a1.235 1.235 0 0 1-1.18.877ZM70.789 25.678a2.634 2.634 0 1 0 0-5.267 2.634 2.634 0 0 0 0 5.267Z" fill="#fff"/></svg>