<svg width="80" height="81" fill="none" xmlns="http://www.w3.org/2000/svg"><path d="M39.837 45.98a5.936 5.936 0 0 1-5.926-5.926 5.936 5.936 0 0 1 5.926-5.926 5.936 5.936 0 0 1 5.925 5.926 5.919 5.919 0 0 1-5.925 5.925Zm0-9.438a3.547 3.547 0 0 0-3.54 3.539 3.548 3.548 0 0 0 3.54 3.539 3.548 3.548 0 0 0 3.539-3.539 3.547 3.547 0 0 0-3.54-3.539ZM39.837 28.943a1.17 1.17 0 0 1-1.18-1.18v-7.105c0-.658.522-1.18 1.18-1.18.658 0 1.18.522 1.18 1.18v7.078c0 .658-.522 1.207-1.18 1.207ZM29.166 35.115a1.25 1.25 0 0 1-.604-.165l-6.145-3.539c-.576-.329-.768-1.07-.44-1.618.33-.576 1.07-.768 1.62-.44l6.145 3.54c.576.33.768 1.07.439 1.618-.22.384-.604.604-1.015.604ZM23.02 50.971c-.411 0-.823-.219-1.042-.603a1.175 1.175 0 0 1 .439-1.619l6.145-3.539a1.175 1.175 0 0 1 1.619.44c.329.575.137 1.289-.44 1.618l-6.117 3.539c-.192.11-.384.164-.604.164ZM39.837 60.683c-.659 0-1.18-.52-1.18-1.18v-7.105c0-.658.522-1.18 1.18-1.18.658 0 1.18.522 1.18 1.18v7.078c0 .659-.522 1.207-1.18 1.207ZM56.654 50.971a1.25 1.25 0 0 1-.604-.164l-6.145-3.54c-.576-.328-.768-1.069-.439-1.618.33-.576 1.07-.768 1.619-.439l6.145 3.54c.576.328.768 1.07.439 1.618-.22.384-.604.603-1.015.603ZM50.509 35.115c-.412 0-.823-.22-1.043-.604a1.175 1.175 0 0 1 .44-1.618l6.144-3.54a1.175 1.175 0 0 1 1.619.44c.33.576.137 1.29-.44 1.618l-6.144 3.54c-.165.11-.357.164-.576.164Z" fill="#fff"/><path d="M39.837 60.875c-.302 0-.604-.11-.85-.356l-6.86-6.886-.164-.11L22.581 51a1.198 1.198 0 0 1-.85-1.454l2.523-9.382v-.192l-2.524-9.382c-.164-.631.22-1.29.851-1.454l9.382-2.524.165-.11 6.858-6.858c.44-.44 1.235-.44 1.674 0l6.886 6.886.164.11 9.383 2.523c.63.165 1.014.823.85 1.454l-2.524 9.382v.193l2.524 9.382c.165.63-.22 1.29-.85 1.454L47.71 53.55l-.164.11-6.886 6.885c-.22.192-.521.33-.823.33Zm-15.528-11.85 8.395 2.249a.82.82 0 0 1 .274.11l.44.246c.081.055.164.11.246.192l6.145 6.145 6.145-6.145c.083-.082.165-.137.247-.192l.44-.247c.082-.055.191-.082.274-.11l8.394-2.249-2.25-8.395c-.027-.11-.027-.192-.027-.301v-.522c0-.11 0-.22.028-.301l2.25-8.395-8.395-2.25a.822.822 0 0 1-.275-.11l-.439-.246a1.504 1.504 0 0 1-.247-.192l-6.145-6.145-6.145 6.145a1.504 1.504 0 0 1-.247.192l-.439.247c-.082.054-.192.082-.274.11l-8.395 2.249 2.25 8.395c.027.11.027.192.027.301v.522c0 .11 0 .22-.027.301l-2.25 8.395Z" fill="#fff"/><path d="M39.837 53.605c-.33 0-.631-.137-.85-.356l-4.28-4.28-5.844-1.564a1.198 1.198 0 0 1-.85-1.454l1.563-5.843-1.563-5.844c-.165-.63.22-1.289.85-1.454l5.843-1.563 4.28-4.335c.44-.439 1.235-.439 1.674 0l4.28 4.28 5.843 1.564c.63.164 1.015.823.85 1.454l-1.564 5.843 1.564 5.843c.165.631-.22 1.29-.85 1.454l-5.844 1.564-4.28 4.28a.977.977 0 0 1-.822.411Zm-9.218-8.202 5.02 1.344c.192.055.384.164.521.301l3.677 3.677 3.676-3.677c.137-.137.329-.246.521-.301l5.02-1.344-1.344-5.02a1.126 1.126 0 0 1 0-.604l1.344-5.02-5.02-1.345a1.243 1.243 0 0 1-.521-.302l-3.676-3.676-3.677 3.676c-.137.137-.329.247-.52.302l-5.021 1.344 1.344 5.02c.055.193.055.412 0 .604l-1.344 5.02ZM40.66.576C40.523.246 40.194 0 39.837 0a.883.883 0 0 0-.823.576l-3.265 8.23a.909.909 0 0 0 0 .659l3.265 8.23c.137.329.466.576.823.576.356 0 .686-.22.823-.576l3.264-8.23a.909.909 0 0 0 0-.659L40.66.576ZM15.394 21.206a.833.833 0 0 0-.576-.33l-8.779-1.289a.887.887 0 0 0-.905.44c-.192.329-.165.713.082.987l5.514 6.968a.833.833 0 0 0 .576.33l8.78 1.289h.136c.33 0 .604-.165.768-.44.193-.328.165-.712-.082-.987l-5.514-6.968ZM20.057 50.533l-8.779 1.29a.947.947 0 0 0-.576.328L5.188 59.12a.922.922 0 0 0-.082.988.91.91 0 0 0 .768.44h.137l8.779-1.29a.948.948 0 0 0 .576-.33l5.514-6.968a.923.923 0 0 0 .082-.987c-.192-.302-.548-.494-.905-.44ZM40.66 62.438c-.137-.329-.466-.576-.823-.576a.883.883 0 0 0-.823.576l-3.265 8.23a.909.909 0 0 0 0 .659l3.265 8.23c.137.33.466.576.823.576.356 0 .686-.22.823-.576l3.264-8.23a.909.909 0 0 0 0-.659l-3.264-8.23ZM68.971 52.151a.834.834 0 0 0-.576-.329l-8.779-1.29a.886.886 0 0 0-.905.44c-.192.329-.165.713.082.987l5.514 6.968a.833.833 0 0 0 .577.33l8.778 1.29h.137c.33 0 .604-.165.769-.44.192-.329.164-.713-.083-.987l-5.514-6.969ZM59.508 29.628h.137l8.779-1.29A.948.948 0 0 0 69 28.01l5.487-6.969a.922.922 0 0 0 .082-.987.886.886 0 0 0-.905-.44l-8.78 1.29a.948.948 0 0 0-.575.33l-5.514 6.968a.922.922 0 0 0-.083.987.92.92 0 0 0 .796.44ZM27.218 19.533c-.11 0-.219 0-.301-.027l-5.322-1.427a1.198 1.198 0 0 1-.85-1.454 1.198 1.198 0 0 1 1.453-.85l4.17 1.125 1.152-4.307a1.198 1.198 0 0 1 1.454-.85c.631.164 1.015.822.85 1.453l-1.453 5.46c-.083.301-.275.576-.549.713-.192.11-.384.164-.604.164ZM10.814 45.211c-.302 0-.604-.11-.85-.356a1.176 1.176 0 0 1 0-1.674l3.045-3.045-3.155-3.155a1.176 1.176 0 0 1 0-1.673 1.176 1.176 0 0 1 1.673 0l4.005 4.005a1.176 1.176 0 0 1 0 1.673l-3.895 3.896c-.22.22-.521.33-.823.33ZM28.753 68.365a1.202 1.202 0 0 1-1.152-.877l-1.125-4.17-4.307 1.152a1.198 1.198 0 0 1-1.454-.85c-.165-.631.22-1.29.85-1.454l5.46-1.454c.301-.083.63-.028.905.11.274.164.466.41.549.712l1.426 5.323c.165.63-.22 1.289-.85 1.454-.11.054-.22.054-.302.054ZM50.977 68.475c-.11 0-.22 0-.302-.028a1.198 1.198 0 0 1-.85-1.454l1.453-5.459a1.198 1.198 0 0 1 1.454-.85l5.322 1.426c.631.165 1.015.823.85 1.454a1.199 1.199 0 0 1-1.453.85l-4.17-1.124-1.152 4.307a1.178 1.178 0 0 1-1.152.878ZM68.971 45.21c-.302 0-.603-.11-.85-.356l-4.006-3.978a1.176 1.176 0 0 1 0-1.674l3.896-3.895a1.176 1.176 0 0 1 1.673 0 1.176 1.176 0 0 1 0 1.673l-3.045 3.045 3.155 3.155a1.176 1.176 0 0 1 0 1.674c-.22.247-.521.356-.823.356ZM52.346 19.478a1.202 1.202 0 0 1-1.152-.878l-1.426-5.322c-.165-.63.22-1.29.85-1.454.631-.164 1.29.22 1.454.85l1.125 4.17 4.307-1.152c.63-.164 1.29.22 1.454.85.165.632-.22 1.29-.85 1.455l-5.46 1.454c-.082 0-.192.027-.302.027Z" fill="#fff"/><path d="M30.18 24.69c-.11 0-.219 0-.301-.027l-5.323-1.426a1.199 1.199 0 0 1-.85-1.454 1.199 1.199 0 0 1 1.454-.85l4.17 1.124 1.152-4.307a1.198 1.198 0 0 1 1.454-.85c.631.164 1.015.823.85 1.453l-1.48 5.46a1.17 1.17 0 0 1-1.126.878ZM16.738 45.239c-.302 0-.604-.11-.85-.357a1.176 1.176 0 0 1 0-1.673l3.044-3.046-3.154-3.154a1.176 1.176 0 0 1 0-1.674 1.176 1.176 0 0 1 1.673 0l4.005 4.005c.22.22.357.522.357.85 0 .33-.137.632-.357.851l-3.868 3.841c-.22.247-.521.357-.85.357ZM31.744 63.261a1.202 1.202 0 0 1-1.152-.877l-1.125-4.17-4.307 1.152a1.198 1.198 0 0 1-1.454-.85c-.165-.631.22-1.29.85-1.455l5.46-1.453c.63-.165 1.29.219 1.454.85l1.426 5.322c.165.631-.22 1.29-.85 1.454-.11 0-.22.027-.302.027ZM48.04 63.316c-.11 0-.22 0-.302-.027a1.198 1.198 0 0 1-.85-1.454l1.454-5.46c.082-.301.274-.575.548-.712.275-.165.604-.192.906-.11l5.322 1.426c.63.165 1.015.823.85 1.454a1.198 1.198 0 0 1-1.454.85l-4.17-1.124-1.152 4.307c-.137.494-.63.85-1.152.85ZM63.046 45.183c-.301 0-.603-.11-.85-.356L58.19 40.82a1.203 1.203 0 0 1-.357-.85c0-.33.137-.631.357-.85l3.895-3.896a1.176 1.176 0 0 1 1.674 0 1.176 1.176 0 0 1 0 1.673l-3.045 3.045 3.154 3.155a1.176 1.176 0 0 1 0 1.674.976.976 0 0 1-.823.411ZM49.356 24.608c-.22 0-.411-.055-.603-.165a1.189 1.189 0 0 1-.55-.713l-1.426-5.322c-.164-.63.22-1.29.85-1.454.632-.165 1.29.22 1.455.85l1.125 4.17 4.307-1.152c.63-.164 1.289.22 1.454.85.164.632-.22 1.29-.85 1.455l-5.433 1.426c-.11.028-.22.055-.329.055Z" fill="#fff"/><path d="M32.073 27.79c-.412 0-.823-.22-1.043-.604l-4.307-7.489a1.175 1.175 0 0 1 .439-1.619 1.175 1.175 0 0 1 1.619.44l4.307 7.489c.329.576.137 1.29-.44 1.618-.164.138-.383.165-.575.165ZM24.283 41.26h-8.641c-.659 0-1.18-.522-1.18-1.18 0-.658.521-1.18 1.18-1.18h8.641c.659 0 1.18.522 1.18 1.18.027.658-.521 1.18-1.18 1.18ZM27.74 62.22c-.193 0-.412-.055-.604-.165-.576-.33-.768-1.07-.44-1.618l4.335-7.49c.33-.576 1.07-.768 1.619-.439.576.33.768 1.07.439 1.619l-4.307 7.49c-.22.383-.631.603-1.043.603ZM51.936 62.22c-.412 0-.823-.22-1.043-.604l-4.307-7.49a1.175 1.175 0 0 1 .44-1.618 1.175 1.175 0 0 1 1.618.44l4.307 7.489c.33.576.137 1.289-.439 1.618a1.08 1.08 0 0 1-.576.165ZM64.034 41.26h-8.642a1.17 1.17 0 0 1-1.18-1.18c0-.658.522-1.18 1.18-1.18h8.642c.658 0 1.18.522 1.18 1.18 0 .658-.522 1.18-1.18 1.18ZM47.602 27.79a1.25 1.25 0 0 1-.604-.165c-.576-.329-.768-1.07-.439-1.618l4.307-7.49c.33-.576 1.07-.768 1.619-.439.576.33.768 1.07.439 1.62l-4.307 7.488c-.192.412-.604.604-1.015.604Z" fill="#fff"/></svg>