<svg width="80" height="80" fill="none" xmlns="http://www.w3.org/2000/svg"><path d="M39.757 45.365a5.269 5.269 0 0 1-5.268-5.268 5.269 5.269 0 0 1 5.268-5.267 5.269 5.269 0 0 1 5.267 5.267 5.269 5.269 0 0 1-5.267 5.268Zm0-8.148a2.88 2.88 0 1 0-.001 5.76 2.88 2.88 0 0 0 0-5.76ZM29.825 25.832l2.085 7.188a4.481 4.481 0 0 0 5.65-3.265l-5.184-5.404c-1.097-1.125-2.99-.028-2.551 1.481ZM22.446 41.552l7.27 1.81c1.893-1.756 1.893-4.746 0-6.529l-7.27 1.81c-1.536.357-1.536 2.524 0 2.909ZM32.35 55.815l5.184-5.404c-.576-2.524-3.182-4.006-5.651-3.265l-2.085 7.188c-.412 1.536 1.481 2.633 2.551 1.481ZM49.687 54.363l-2.084-7.188a4.481 4.481 0 0 0-5.652 3.265l5.185 5.404c1.097 1.125 2.99.028 2.551-1.481ZM57.067 38.644l-7.27-1.811c-1.893 1.756-1.893 4.746 0 6.53l7.27-1.811c1.536-.385 1.536-2.552 0-2.908ZM47.163 24.35l-5.185 5.405c.576 2.524 3.182 4.006 5.65 3.265l2.086-7.188c.411-1.509-1.482-2.606-2.551-1.481ZM39.755 25.42c-.301 0-.603-.11-.823-.357l-7.324-7.243a1.176 1.176 0 0 1 0-1.673 1.176 1.176 0 0 1 1.673 0l6.502 6.42 6.502-6.42c.466-.467 1.234-.467 1.673 0 .466.466.466 1.234 0 1.673l-7.325 7.243a1.293 1.293 0 0 1-.878.356Z" fill="#fff"/><path d="M39.755 16.723c-.301 0-.603-.11-.823-.357l-3.73-3.676a1.176 1.176 0 0 1 0-1.673 1.176 1.176 0 0 1 1.673 0l2.88 2.853 2.88-2.853c.467-.467 1.235-.467 1.674 0 .467.466.467 1.234 0 1.673l-3.73 3.676c-.22.247-.522.357-.824.357ZM16.08 36.091a1.202 1.202 0 0 1-1.152-.878c-.165-.63.192-1.289.823-1.454l8.806-2.414-2.304-8.833c-.165-.631.219-1.29.85-1.454.63-.165 1.29.22 1.454.85l2.606 9.958c.165.632-.22 1.29-.823 1.455l-9.93 2.743c-.138 0-.22.027-.33.027Z" fill="#fff"/><path d="M13.446 30.412a1.202 1.202 0 0 1-1.152-.878c-.165-.631.192-1.29.823-1.454l3.895-1.07-1.014-3.923c-.165-.631.219-1.29.85-1.454.63-.165 1.29.22 1.454.85l1.317 5.048c.164.631-.22 1.29-.823 1.454l-5.048 1.4c-.082 0-.192.027-.302.027ZM23.405 59.192c-.11 0-.192 0-.301-.028a1.199 1.199 0 0 1-.85-1.454l2.304-8.834-8.806-2.414a1.16 1.16 0 0 1-.823-1.454 1.16 1.16 0 0 1 1.454-.823l9.93 2.744c.632.164.988.823.824 1.454L24.53 58.34c-.11.494-.576.85-1.125.85Z" fill="#fff"/><path d="M17.178 58.615c-.11 0-.192 0-.302-.027a1.198 1.198 0 0 1-.85-1.454l1.015-3.923-3.896-1.07a1.161 1.161 0 0 1-.823-1.454 1.161 1.161 0 0 1 1.454-.823l5.048 1.4c.63.164.987.822.823 1.453l-1.317 5.048c-.137.494-.63.85-1.152.85ZM47.108 64.405c-.302 0-.604-.11-.823-.357l-6.502-6.42-6.502 6.42c-.466.466-1.234.466-1.673 0-.467-.466-.467-1.235 0-1.674l7.324-7.242a1.176 1.176 0 0 1 1.674 0l7.325 7.242a1.176 1.176 0 0 1 0 1.674 1.19 1.19 0 0 1-.823.357Z" fill="#fff"/><path d="M43.486 69.507c-.302 0-.603-.11-.823-.357l-2.88-2.853-2.88 2.853c-.467.467-1.235.467-1.674 0-.467-.466-.467-1.234 0-1.673l3.73-3.676a1.176 1.176 0 0 1 1.674 0l3.731 3.676a1.176 1.176 0 0 1 0 1.673 1.293 1.293 0 0 1-.878.357ZM56.106 59.192a1.202 1.202 0 0 1-1.152-.878l-2.606-9.959c-.165-.63.22-1.289.823-1.453l9.93-2.744c.632-.164 1.29.192 1.455.823.164.631-.192 1.29-.823 1.454l-8.806 2.414 2.304 8.834c.165.63-.22 1.29-.85 1.454a.812.812 0 0 1-.275.055Z" fill="#fff"/><path d="M62.335 58.616a1.202 1.202 0 0 1-1.152-.878l-1.317-5.048c-.164-.631.22-1.29.823-1.454l5.048-1.4c.631-.164 1.29.193 1.454.824.165.63-.192 1.29-.823 1.454l-3.895 1.07 1.015 3.923c.164.63-.22 1.29-.85 1.454a.987.987 0 0 1-.303.055ZM40.442 5.093a2.626 2.626 0 0 0-2.03.275 2.69 2.69 0 0 0-.988 3.676 2.705 2.705 0 0 0 3.676.988 2.691 2.691 0 0 0 .988-3.677 2.642 2.642 0 0 0-1.646-1.262ZM11.691 21.196a2.693 2.693 0 0 0-2.688 2.689 2.693 2.693 0 0 0 2.688 2.688 2.693 2.693 0 0 0 2.689-2.688 2.693 2.693 0 0 0-2.689-2.689ZM13.036 53.98a2.691 2.691 0 1 0-2.689 4.664c.412.247.878.356 1.345.356.22 0 .466-.027.685-.082a2.662 2.662 0 0 0 1.619-1.262c.357-.631.466-1.344.274-2.03a2.514 2.514 0 0 0-1.234-1.646ZM38.412 70.165a2.663 2.663 0 0 0-1.262 1.619 2.625 2.625 0 0 0 .275 2.03 2.705 2.705 0 0 0 3.676.988 2.69 2.69 0 0 0 .987-3.676c-.74-1.262-2.386-1.701-3.676-.96ZM67.821 53.622a2.693 2.693 0 0 0-2.688 2.689 2.693 2.693 0 0 0 2.688 2.688 2.693 2.693 0 0 0 2.689-2.688 2.693 2.693 0 0 0-2.689-2.689ZM66.476 26.217c.412.247.878.357 1.344.357.933 0 1.839-.494 2.332-1.345a2.69 2.69 0 1 0-4.664-2.688 2.69 2.69 0 0 0 .988 3.676ZM63.432 36.064c-.11 0-.22-.027-.33-.055l-9.93-2.743c-.631-.165-.988-.823-.823-1.454l2.606-9.959a1.198 1.198 0 0 1 1.454-.85c.63.165 1.015.823.85 1.454l-2.304 8.834 8.806 2.414a1.16 1.16 0 0 1 .823 1.454 1.166 1.166 0 0 1-1.152.905Z" fill="#fff"/><path d="M66.065 30.387c-.11 0-.22-.027-.329-.055l-5.048-1.399c-.63-.164-.987-.823-.823-1.454l1.317-5.047a1.199 1.199 0 0 1 1.454-.85c.631.164 1.015.822.85 1.453l-1.015 3.923 3.896 1.07c.631.165 1.015.823.823 1.454a1.136 1.136 0 0 1-1.125.905ZM36.217 39.248a1.25 1.25 0 0 1-.603-.165L25.38 33.185c-.576-.33-.768-1.07-.44-1.619a1.175 1.175 0 0 1 1.62-.439l10.232 5.899c.576.329.768 1.07.44 1.618-.193.384-.604.604-1.016.604ZM26.012 49.233c-.412 0-.823-.22-1.043-.603a1.175 1.175 0 0 1 .44-1.62l10.204-5.897a1.175 1.175 0 0 1 1.619.439c.33.576.137 1.289-.439 1.618l-10.178 5.898c-.192.11-.384.165-.603.165ZM39.755 57.162a1.17 1.17 0 0 1-1.18-1.18V44.185c0-.658.521-1.18 1.18-1.18.658 0 1.18.522 1.18 1.18v11.797c.027.631-.522 1.18-1.18 1.18ZM53.5 49.206a1.25 1.25 0 0 1-.604-.165l-10.233-5.898c-.576-.33-.768-1.07-.439-1.619.33-.576 1.07-.768 1.619-.439l10.232 5.899c.576.329.768 1.07.44 1.618-.193.412-.604.604-1.016.604ZM43.267 39.248c-.412 0-.824-.22-1.043-.604a1.175 1.175 0 0 1 .439-1.618l10.205-5.899a1.175 1.175 0 0 1 1.619.44c.33.575.137 1.289-.44 1.618l-10.204 5.898c-.165.11-.357.165-.577.165ZM39.755 37.217c-.659 0-1.18-.521-1.18-1.18V24.242c0-.658.521-1.18 1.18-1.18.658 0 1.18.522 1.18 1.18v11.797c0 .63-.522 1.18-1.18 1.18Z" fill="#fff"/></svg>